<?xml version="1.0" encoding="utf-8"?>
<!-- Generator: Adobe Illustrator 24.2.3, SVG Export Plug-In . SVG Version: 6.00 Build 0)  -->
<svg version="1.1" id="Capa_1" xmlns="http://www.w3.org/2000/svg" xmlns:xlink="http://www.w3.org/1999/xlink" x="0px" y="0px"
	 viewBox="0 0 175 50" style="enable-background:new 0 0 175 50;" xml:space="preserve">
<style type="text/css">
	.st0{fill-rule:evenodd;clip-rule:evenodd;}
	.st1{fill:#FFFFFF;}
	.st2{stroke:#FFFFFF;stroke-width:0.25;stroke-miterlimit:10;}
	.st3{fill:none;stroke:#000000;stroke-miterlimit:10;}
</style>
<g>
	<path d="M47.6,29.7c0-0.1,0.1-0.2,0.1-0.2c0.4-1.5,1.4-2.4,3-2.5c1.5,0,3.1,0,4.6,0c1.2,0,1.9,0.8,1.5,1.8c-0.2,0.6-0.7,1-1.5,1
		c-1.4,0-2.8,0-4.2,0c-0.3,0-0.8-0.1-0.8,0.4c0,0.6,0.5,0.4,0.8,0.4c2.3,0,4.5,0,6.8,0c0.2,0,0.4,0,0.6,0c0-1.2,0-2.4,0-3.6
		c0-0.5-0.5-0.8-1.2-0.9c-1.2,0-2.3,0-3.5,0c-0.6,0-1.2,0-1.8,0c-0.9,0-1.5-0.6-1.5-1.4c0-0.7,0.6-1.4,1.4-1.4c2.1,0,4.2-0.1,6.2,0
		c1.9,0.1,3.2,1.6,3.2,3.5c0,1.7,0,3.5,0,5.2c0,0.8-0.4,1.3-1.3,1.3c-1.7,0-3.3,0-5,0c-1.4,0-2.8,0-4.2,0c-1.7,0-2.7-0.8-3.2-2.4
		c0-0.1-0.1-0.1-0.1-0.2C47.6,30.5,47.6,30.1,47.6,29.7z"/>
	<path d="M98.2,16c0-0.2,0.1-0.3,0.3-0.2c0.5,0.1,1.1,0.1,1.6,0.2c0.2,0,0.4,0.2,0.6,0.3c0,0.1,0,0.1,0,0.2c0.1-0.1,0.2-0.2,0.3-0.4
		c0.9,0.2,1.9,0.3,2.8,0.5c4.1,0.8,8.2,1.7,12.2,3.2c2.6,0.9,5.1,2,7.3,3.6c1,0.7,1.9,1.5,2.5,2.5c1,1.6,1.1,3.1,0,4.7
		c-0.1,0.1-0.1,0.2-0.2,0.4c1.3-1.1,1.9-3,1.1-4.6c-0.7-1.5-1.9-2.5-3.2-3.4c-2.5-1.7-5.2-2.8-8-3.7c-5-1.7-10.1-2.7-15.3-3.5
		c-6.7-1-13.5-1.4-20.3-1.4c-0.1,0-0.3,0-0.4,0c0,0,0-0.1,0-0.1c0.2,0,0.3,0,0.5,0c7.7,0,15.4,0.6,23.1,1.9
		c5.3,0.9,10.6,2.1,15.6,4.2c2.1,0.9,4.1,1.9,5.8,3.3c0.9,0.7,1.7,1.5,2.2,2.6c0.7,1.3,0.6,2.6-0.1,3.9c-0.9,1.6-2.3,2.6-3.8,3.5
		c-1.6,0.8-3.2,1.5-4.9,2.3c-0.1,0.1-0.3,0-0.4,0.1c0,0,0-0.1,0-0.1c0.4-0.2,0.9-0.4,1.3-0.6c0.1-0.2,0.1-0.4,0.2-0.6
		c0.2,0.1,0.3,0.2,0.6,0.3c0.1-0.1,0.3-0.3,0.5-0.5c-0.2-0.2-0.3-0.5-0.5-0.7c-0.2-0.2-0.4-0.4-0.5-0.6c-0.2-0.2-0.4-0.6-0.8-0.2
		c-0.2,0-0.5-0.1-0.7-0.1c0-0.1,0-0.1,0-0.2c-0.3,0.3-0.7,0.6-1,0.8c-0.1,0.1-0.2,0-0.3,0.1c-0.1,0.1-0.2,0.2-0.3,0.3
		c-0.1,0.1-0.2,0.3-0.2,0.2c-0.5-0.4-0.8,0.1-1.2,0.2c-0.4,0.1-0.7,0.3-1.1,0.4c-1.2,0.4-2.4,0.9-3.7,1.3c-0.1,0-0.3,0.1-0.4,0.1
		c0-0.1,0-0.1,0-0.2c0.2-0.1,0.3-0.1,0.5-0.2c2.6-0.8,5.2-1.7,7.5-3.2c0.7-0.5,1.5-1,2-1.6c0.5-0.6,0.8-1.5,0.9-2.3
		c0.1-0.6-0.1-1.3-0.4-1.9c-0.8-1.6-2.2-2.5-3.7-3.4c-2.9-1.6-6-2.6-9.2-3.5c-0.6-0.2-1.2-0.3-1.7-0.4c-0.2-0.1-0.4-0.2-0.6-0.3
		c-0.2,0-0.4,0.1-0.6,0c-0.5-0.1-1.1-0.2-1.6-0.3c-0.2,0-0.3-0.2-0.4-0.3c-0.1-0.1-0.3-0.1-0.3-0.1c-0.2,0.4-0.5,0.2-0.6,0.1
		c-0.4-0.2-0.8-0.3-1.3-0.2c-0.2,0-0.3-0.2-0.5-0.3c-0.1,0-0.3,0-0.5,0c-0.2,0-0.4,0.1-0.6,0c-0.2-0.1-0.4-0.3-0.5-0.4
		c0,0.1,0,0.1,0,0.2c-0.2,0.1-0.3,0.1-0.5,0.2c0,0,0-0.1-0.1-0.1c0.1-0.1,0.1-0.2,0.2-0.3c0,0,0,0,0,0c-0.2,0-0.5,0.1-0.7,0
		c-0.3-0.1-0.4-0.2-0.6,0c-0.1,0.1-0.4,0-0.5-0.1c-0.2-0.3-0.4-0.3-0.6,0c-0.1,0.1-0.4,0-0.4,0c-0.1-0.4-0.4-0.3-0.7-0.4
		c0,0.1,0,0.2,0.1,0.4c-0.2-0.1-0.3-0.2-0.5-0.3c0,0,0-0.1,0.1-0.1c-0.7-0.1-1.3-0.1-2-0.2c0,0,0,0-0.1,0C91,17,90.6,17,90.2,16.8
		c-0.1-0.1-0.4,0.1-0.5,0.1c-0.3-0.1-0.5-0.2-0.8-0.2c-0.1,0-0.2,0.1-0.2,0.2c-0.1,0-0.2,0.1-0.2,0.1c-0.1-0.5-0.5-0.3-0.7-0.3
		c-4.1-0.1-8.3-0.2-12.4-0.2c-4.6,0-9.2,0.4-13.8,1.1c-0.1,0-0.2,0-0.3,0c0,0,0-0.1,0-0.1c0.2,0,0.4-0.1,0.6-0.1
		c3.6-0.3,7.1-0.7,10.7-0.9c2.9-0.2,5.8-0.2,8.7-0.2c1.2,0,2.5,0.1,3.7,0.1c0.5,0,1,0.1,1.5,0.1c0.4,0,0.7,0,1.1,0
		c0.2,0,0.4-0.1,0.7-0.1c0.2,0.3,0.8,0.3,1.1-0.1c0.1,0.5,0.5,0.4,0.8,0.5c0.8,0.1,1.6,0.1,2.4,0.2c0.1,0,0.3,0,0.4,0
		c0.2-0.2,0.3-0.1,0.5,0c0.2,0.2,0.4,0.3,0.6,0c0-0.1,0.3,0,0.4,0c0.2,0.1,0.3,0.2,0.5,0.4c0-0.1,0-0.1,0-0.2
		c0.1-0.1,0.3-0.2,0.4-0.4c0.1,0.1,0.2,0.3,0.4,0.5c0,0,0.2,0,0.3,0c0.1-0.2,0.2-0.4,0.3-0.6c0,0,0.3,0,0.3,0.1c0,0.2,0,0.4,0,0.5
		c0.2,0.1,0.4,0.1,0.7,0.2c0.2,0.1,0.5,0.2,0.5-0.2c0.1-0.1,0.1-0.2,0.2-0.3c0,0,0.1,0,0.1,0c0.1,0.1,0.2,0.2,0.3,0.3
		c0.2,0.2,0.4,0.2,0.5-0.1c0.1-0.1,0-0.4-0.1-0.5c-0.1-0.1-0.2-0.2-0.4-0.3C98.4,16.2,98.3,16.1,98.2,16z"/>
	<path d="M104.4,30.6c0-1.2,0-2.3,0-3.5c0-0.6-0.5-1-1.3-1c-1.4,0-2.8,0-4.1,0c-0.4,0-0.8,0-1.2,0c-0.8,0-1.4-0.6-1.4-1.4
		c0-0.8,0.5-1.4,1.3-1.4c2.2,0,4.3-0.1,6.5,0.1c1.8,0.1,3,1.6,3,3.5c0,1.8,0,3.5,0,5.3c0,0.8-0.5,1.2-1.2,1.2c-3.1,0-6.3,0-9.4,0
		c-1.8,0-2.9-1.2-3.1-3c-0.2-1.5,0.8-3,2.3-3.3c0.3-0.1,0.6-0.1,1-0.1c1.4,0,2.9,0,4.3,0c0.3,0,0.6,0,0.9,0.1c0.6,0.2,1,0.8,0.9,1.5
		c-0.1,0.7-0.6,1.2-1.3,1.2c-0.8,0-1.6,0-2.4,0c-0.8,0-1.6,0-2.3,0c-0.3,0-0.5,0.2-0.5,0.5c0,0.2,0.3,0.4,0.5,0.4c2.5,0,5,0,7.4,0
		C104.2,30.7,104.3,30.6,104.4,30.6z"/>
	<path d="M63.2,24.5c0-1.5,0-3,0-4.4c0-1,0.5-1.6,1.3-1.6c0.9-0.1,1.5,0.5,1.5,1.5c0,2.5,0,5.1,0,7.6c0,0.3,0,0.7,0,1
		c0,1.2,1,2.1,2.1,2.1c1.3,0,2.6,0,3.9,0c1.2,0,2.1-0.9,2.1-2.2c0-1.2-0.9-2.2-2.1-2.3c-1.1,0-2.1,0-3.2,0c-1,0-1.7-0.9-1.4-1.8
		c0.2-0.5,0.5-0.9,1.1-0.9c1.5,0,3.1-0.2,4.6,0.1c2.3,0.3,4,2.8,3.8,5.3c-0.2,2.3-1.6,4.1-3.7,4.5c-0.4,0.1-0.8,0.1-1.2,0.1
		c-1.3,0-2.7-0.1-4,0c-2.7,0.1-5-2.4-4.9-4.9C63.2,27.2,63.2,25.8,63.2,24.5z"/>
	<path d="M78.5,24.4c0-1.5,0-3,0-4.5c0-0.8,0.5-1.4,1.2-1.5c0.9-0.1,1.6,0.5,1.6,1.5c0,2.8,0,5.6,0,8.4c0,1.5,0.9,2.4,2.4,2.4
		c1.2,0,2.4,0,3.6,0c1.3,0,2.2-0.9,2.2-2.3c0-1.3-0.9-2.2-2.1-2.3c-1.1,0-2.1,0-3.2,0c-0.7,0-1.2-0.4-1.4-1c-0.2-0.6,0-1.2,0.5-1.5
		c0.2-0.2,0.5-0.3,0.8-0.3c1.3,0,2.6-0.1,3.8,0c2.2,0.1,4,1.9,4.3,4.2c0.3,2.3-0.8,4.5-2.8,5.4c-0.6,0.3-1.3,0.4-1.9,0.4
		c-1.5,0.1-2.9,0-4.4,0c-2.4,0-4.6-2.2-4.7-4.6C78.5,27.4,78.5,25.9,78.5,24.4z"/>
	<path d="M119.3,33c0.2,0.2,0.4,0.4,0.5,0.6c-0.1,0.1-0.1,0.2-0.2,0.3c-0.4,0.1-0.7,0-0.6-0.5C119.2,33.3,119.2,33.1,119.3,33z"/>
	<path d="M119.3,33c-0.1,0.1-0.2,0.3-0.3,0.4c-0.5,0-0.6-0.2-0.5-0.6C119,32.4,119.1,32.8,119.3,33z"/>
	<path d="M98.2,16c0.1,0.1,0.1,0.2,0.2,0.3c-0.1,0.2-0.3,0.3-0.4,0.5c0,0-0.1,0-0.1,0c-0.1-0.1-0.1-0.1-0.2-0.2c0-0.2,0-0.4,0-0.6
		c0,0,0,0,0,0C97.9,16,98,16,98.2,16z"/>
	<path d="M119.7,33.9c0.1-0.1,0.1-0.2,0.2-0.3c0.2,0.2,0.3,0.5,0.5,0.7c-0.2,0-0.4,0.1-0.6,0.1C119.7,34.2,119.7,34.1,119.7,33.9z"
		/>
	<path d="M97.7,16.6c0.1,0.1,0.1,0.1,0.2,0.2c-0.1,0.1-0.1,0.2-0.2,0.3c-0.2,0-0.4,0-0.5-0.1c0,0-0.1-0.3,0-0.3
		C97.3,16.6,97.5,16.6,97.7,16.6z"/>
	<path d="M96.3,15.3c0.2,0.2,0.3,0.3,0.3,0.4c0,0.1-0.2,0.3-0.3,0.3c-0.1,0-0.3-0.2-0.3-0.3C96,15.7,96.2,15.5,96.3,15.3z"/>
	<path d="M97.1,16.1c0,0.2,0,0.3-0.1,0.5c0,0-0.3,0.1-0.4,0c-0.1-0.1-0.1-0.2-0.1-0.3C96.8,16.2,96.9,16.1,97.1,16.1
		C97.1,16.1,97.1,16.1,97.1,16.1z"/>
	<path d="M95.8,15.9c0.1,0.2,0.3,0.3,0.3,0.4c0,0.1-0.2,0.3-0.3,0.3c-0.1,0-0.3-0.2-0.3-0.3C95.5,16.2,95.6,16.1,95.8,15.9z"/>
	<path d="M97.1,16.1C97.1,16.1,97.1,16.1,97.1,16.1c0-0.1,0-0.3,0-0.5c0.2,0.2,0.8-0.2,0.6,0.4c0,0,0,0,0,0
		C97.5,16,97.3,16,97.1,16.1z"/>
	<path d="M95.7,15.8c-0.2,0.1-0.3,0.3-0.5,0.3c-0.1,0-0.3-0.2-0.2-0.3c0-0.1,0.2-0.3,0.3-0.3C95.4,15.5,95.5,15.6,95.7,15.8z"/>
	<path d="M117.7,32.7c0.2,0.2,0.3,0.3,0.3,0.4c0,0.1-0.2,0.2-0.3,0.3c-0.1-0.1-0.3-0.2-0.3-0.3C117.4,33,117.5,32.9,117.7,32.7z"/>
	<path d="M118.3,34c-0.2-0.2-0.3-0.3-0.3-0.4c0-0.1,0.2-0.2,0.3-0.3c0.1,0.1,0.2,0.2,0.3,0.3C118.5,33.7,118.4,33.8,118.3,34z"/>
	<path d="M118.8,34.6c-0.1-0.2-0.3-0.3-0.3-0.4c0-0.1,0.1-0.2,0.2-0.3c0.1,0.1,0.3,0.2,0.3,0.3C119.1,34.3,119,34.4,118.8,34.6z"/>
	<path d="M94.7,16.7c-0.1-0.2-0.3-0.3-0.3-0.4c0-0.1,0.2-0.2,0.3-0.3c0.1,0.1,0.2,0.2,0.2,0.3C94.9,16.4,94.8,16.5,94.7,16.7z"/>
	<path d="M94.5,15.7c-0.2,0.1-0.3,0.3-0.4,0.3c-0.1,0-0.2-0.2-0.3-0.2c0.1-0.1,0.2-0.3,0.3-0.3C94.2,15.5,94.3,15.6,94.5,15.7z"/>
	<path d="M98,16.8c0.1-0.2,0.3-0.3,0.4-0.5c0.1,0.1,0.3,0.2,0.4,0.3c0.1,0.1,0.1,0.4,0.1,0.5c-0.1,0.2-0.3,0.3-0.5,0.1
		C98.2,17,98.1,16.9,98,16.8z"/>
</g>
</svg>
