<?xml version="1.0" encoding="utf-8"?>
<!-- Generator: Adobe Illustrator 25.2.1, SVG Export Plug-In . SVG Version: 6.00 Build 0)  -->
<svg version="1.1" id="Capa_1" xmlns="http://www.w3.org/2000/svg" xmlns:xlink="http://www.w3.org/1999/xlink" x="0px" y="0px"
	 viewBox="0 0 175 50" style="enable-background:new 0 0 175 50;" xml:space="preserve">
<style type="text/css">
	.st0{fill-rule:evenodd;clip-rule:evenodd;}
	.st1{fill:#000001;}
	.st2{clip-path:url(#SVGID_3_);fill:#000001;}
	.st3{fill-rule:evenodd;clip-rule:evenodd;fill:#000001;}
	.st4{stroke:#FFFFFF;stroke-width:0.25;stroke-miterlimit:10;}
	.st5{fill:#FFFFFF;}
	.st6{clip-path:url(#SVGID_5_);}
	.st7{clip-path:url(#SVGID_7_);}
	.st8{fill:#1A171B;}
	.st9{fill-rule:evenodd;clip-rule:evenodd;fill:#1A171B;}
	.st10{fill:#1A1413;}
	.st11{fill-rule:evenodd;clip-rule:evenodd;fill:#1A1413;}
	.st12{fill:none;}
	.st13{fill:#1C1C1B;}
	.st14{clip-path:url(#SVGID_9_);fill:#1C1C1B;}
	.st15{clip-path:url(#SVGID_11_);fill:#1C1C1B;}
	.st16{clip-path:url(#SVGID_13_);fill:#FFFFFF;}
	.st17{clip-path:url(#SVGID_13_);}
	.st18{fill:#C3E1F5;}
	.st19{fill:#00A0DF;}
	.st20{fill:#2D2A26;}
	.st21{fill:#FFCD00;}
	.st22{fill:#85754E;}
	.st23{clip-path:url(#SVGID_15_);}
	.st24{clip-path:url(#SVGID_17_);}
	.st25{clip-path:url(#SVGID_19_);fill:#2D2A26;}
	.st26{clip-path:url(#SVGID_21_);fill:#2D2A26;}
	.st27{clip-path:url(#SVGID_23_);fill:#2D2A26;}
	.st28{clip-path:url(#SVGID_25_);fill:#2D2A26;}
	.st29{clip-path:url(#SVGID_27_);fill:#2D2A26;}
	.st30{fill-rule:evenodd;clip-rule:evenodd;fill:#B01842;}
	.st31{fill:none;stroke:#000000;stroke-width:0.5;stroke-miterlimit:33.89;}
	.st32{fill:none;stroke:#259271;stroke-width:0.5;stroke-miterlimit:33.89;}
	.st33{fill:none;stroke:#FFFFFF;stroke-width:0.5;stroke-linecap:round;stroke-linejoin:round;stroke-miterlimit:33.89;}
	.st34{fill:none;stroke:#000000;stroke-width:0.5;stroke-linecap:round;stroke-linejoin:round;stroke-miterlimit:33.89;}
	.st35{fill:none;stroke:#000000;stroke-width:0.2;stroke-miterlimit:33.89;}
	.st36{fill:#9C080D;}
	.st37{opacity:0.4;fill:#221E1F;}
	.st38{fill:#F9F9FA;}
	.st39{opacity:0.2;}
	.st40{opacity:0.15;}
	.st41{fill:#1C1C1B;stroke:#1C1C1B;stroke-width:0.1;stroke-miterlimit:10;}
	.st42{fill:#221E1F;}
	.st43{fill:#33530D;}
	.st44{fill:#221E1F;stroke:#FFFFFF;stroke-miterlimit:10;}
	.st45{fill-rule:evenodd;clip-rule:evenodd;fill:#FFFFFF;stroke:#221E1F;stroke-miterlimit:10;}
	.st46{fill-rule:evenodd;clip-rule:evenodd;fill:#FFFFFF;}
	.st47{fill:#221E1F;stroke:#221E1F;stroke-miterlimit:10;}
	.st48{fill:#F6F6F6;}
	.st49{clip-path:url(#SVGID_31_);}
	.st50{fill:#FFFFFF;stroke:#000000;stroke-miterlimit:10;}
	.st51{fill:#FFFFFF;stroke:#000000;stroke-width:0.5;stroke-miterlimit:10;}
	.st52{stroke:#000000;stroke-miterlimit:10;}
	.st53{fill:none;stroke:#000000;stroke-miterlimit:10;}
	.st54{fill:none;stroke:#000000;stroke-width:0.5;stroke-miterlimit:10;}
</style>
<path class="st0" d="M39.5,19.1l-0.6,0.1l-0.6,0.2l-0.6,0.2l-0.5,0.3l-0.5,0.3l-0.5,0.4L35.6,21l-0.4,0.4l-0.4,0.5l-0.3,0.5L34.2,23
	L34,23.6l-0.2,0.6l-0.1,0.6l0,0.7l0,0.6l0.1,0.7l0.2,0.6l0.2,0.6l0.3,0.6l0.3,0.5l0.4,0.5l0.4,0.5l0.4,0.4l0.5,0.4l0.5,0.3l0.5,0.3
	l0.6,0.2l0.6,0.2l0.6,0.1l0.7,0l4.7,0v-3.5h-4.7l-0.6-0.1L39,28.2L38.5,28L38,27.6l-0.4-0.4l-0.3-0.5l-0.2-0.5l-0.1-0.6l0.1-0.6
	l0.2-0.6l0.3-0.5l0.4-0.4l0.4-0.4l0.5-0.3l0.6-0.2l0.6-0.1h4.7v-3.4h-4.7L39.5,19.1L39.5,19.1z M53,23.8h-3.9v-4.7h-3.4v12.9h3.4
	v-4.7H53v4.7h3.4V19.1H53V23.8z M65.4,19.7l-0.3-0.3l-0.3-0.2l-0.4-0.1h-2.8l-0.4,0.1l-0.4,0.2l-0.3,0.3l-0.2,0.4L56.9,32h3.6
	l0.6-2.1h3.6l0.6,2.1H69l-3.4-11.8L65.4,19.7L65.4,19.7z M63,26.4h-0.8l0.8-2.6l0.8,2.6H63L63,26.4z M82,28.5l-0.3-0.2L81.6,28
	l0-0.3v-8.5h-3.5v10.2l0.1,0.5l0.2,0.5l0.2,0.5l0.4,0.4l0.4,0.3l0.4,0.3l0.5,0.2l0.5,0.1h5.8v-3.5h-4.2L82,28.5L82,28.5z M73,28.5
	l-0.3-0.2L72.6,28l0-0.3v-8.5h-3.5v10.2l0.1,0.5l0.2,0.5l0.3,0.5l0.3,0.4l0.4,0.3l0.4,0.3l0.5,0.2l0.5,0.1h5.8v-3.5h-4.2L73,28.5
	L73,28.5z M90.8,23.9l-0.2-0.1l-0.2-0.1l-0.1-0.2v-0.9l0.1-0.2l0.2-0.1l0.2-0.1l0.3,0h5v-3.1h-6.5L89,19.1l-0.5,0.2L88,19.6
	l-0.4,0.3l-0.3,0.4l-0.2,0.4l-0.2,0.5l-0.1,0.5v7.6l0.1,0.5l0.2,0.5l0.2,0.5l0.3,0.4l0.4,0.3l0.4,0.3l0.5,0.2l0.5,0.1h6.5v-3.2h-5.2
	l-0.2-0.1l-0.2-0.1l-0.1-0.2v-0.9l0.1-0.2l0.2-0.1l0.2-0.1l0.3,0h5V24h-5L90.8,23.9L90.8,23.9z M104.7,23.8l-3.7-4.1l-0.1-0.1
	l-0.2-0.2l-0.2-0.1l-0.3-0.1l-0.3-0.1l-0.4,0h-2.4V32h3.4v-4.7l3.7,4.1l0.1,0.1l0.2,0.2l0.2,0.1l0.3,0.1l0.4,0.1l0.4,0h2.5V19.1
	h-3.4L104.7,23.8L104.7,23.8z M114.4,19.1l-0.6,0.1l-0.6,0.2l-0.6,0.2l-0.6,0.3l-0.5,0.3l-0.5,0.4l-0.5,0.4l-0.4,0.4l-0.4,0.5
	l-0.3,0.5l-0.3,0.5l-0.2,0.6l-0.2,0.6l-0.1,0.6l0,0.6l0,0.6l0.1,0.7l0.2,0.6l0.2,0.6l0.3,0.6l0.3,0.5l0.4,0.5l0.4,0.5l0.5,0.4
	l0.5,0.4l0.5,0.3l0.6,0.3l0.6,0.2l0.6,0.2l0.6,0.1l0.7,0l4.8,0v-7.7h-5.5v3.4h2v0.9h-1.3l-0.6-0.1l-0.6-0.2l-0.5-0.3l-0.4-0.4
	l-0.4-0.4l-0.3-0.5l-0.2-0.5l0-0.6l0-0.6l0.2-0.6l0.3-0.5l0.4-0.4l0.4-0.4l0.5-0.3l0.6-0.2l0.6-0.1h4.8v-3.4h-4.8L114.4,19.1
	L114.4,19.1z M124.4,23.9l-0.2-0.1l-0.2-0.1l-0.1-0.2v-0.9l0.1-0.2l0.2-0.1l0.2-0.1l0.3,0h4.9v-3.1h-6.5l-0.5,0.1l-0.5,0.2l-0.5,0.3
	l-0.4,0.3l-0.3,0.4l-0.3,0.4l-0.2,0.5l-0.1,0.5v7.6l0.1,0.5l0.2,0.5l0.3,0.5l0.3,0.4l0.4,0.3l0.5,0.3l0.5,0.2l0.5,0.1h6.5v-3.2h-5.2
	l-0.2-0.1l-0.2-0.1l-0.1-0.2v-0.9l0.1-0.2l0.2-0.1l0.2-0.1l0.3,0h5V24h-5L124.4,23.9L124.4,23.9z M141,24.6l0.2-0.6l0.1-0.6v-1.7
	l-0.1-0.5l-0.1-0.5l-0.3-0.4l-0.3-0.4l-0.4-0.3l-0.4-0.3l-0.5-0.2l-0.5-0.1h-8v12.9h3.5v-4.7h1.1l0.5,0l0.2,0l0.3,0l0.4,0.1l0.4,0.2
	l0.3,0.3l0.3,0.5l0.2,0.6l0.1,0.8v2.1h3.4v-4.4l-0.1-0.6l-0.2-0.6l-0.3-0.5l-0.4-0.4l0.4-0.4L141,24.6L141,24.6z M137.8,23.5
	l-0.1,0.2l-0.2,0.1l-0.2,0.1l-0.3,0h-2.9v-1.7h2.9l0.3,0l0.2,0.1l0.2,0.1l0.1,0.2V23.5z"/>
</svg>
