<?xml version="1.0" encoding="utf-8"?>
<!-- Generator: Adobe Illustrator 25.2.1, SVG Export Plug-In . SVG Version: 6.00 Build 0)  -->
<svg version="1.1" id="Capa_1" xmlns="http://www.w3.org/2000/svg" xmlns:xlink="http://www.w3.org/1999/xlink" x="0px" y="0px"
	 viewBox="0 0 175 50" style="enable-background:new 0 0 175 50;" xml:space="preserve">
<style type="text/css">
	.st0{fill:#FFFFFF;}
</style>
<g>
	<path d="M61,36.1c-7.4,0-14.8,0-22.3,0c0-7.4,0-14.7,0-22.2c7.4,0,14.8,0,22.3,0C61,21.3,61,28.7,61,36.1z M53.1,15.7
		c0,6.2,0,12.4,0,18.7c4-1.1,6.9-5.3,6.8-9.6C59.7,20.5,56.6,16.4,53.1,15.7z M39.9,25.6c0,5.3,5.1,9.7,10.5,9.3
		c1.6-0.1,1.7-0.3,1.4-1.9C50.7,28.2,45.3,24.8,39.9,25.6z M39.9,24.4c0.9,0,1.9,0,2.8,0c4.3-0.2,8.4-3.8,9.1-7.8
		c0.1-0.8,0.3-1.4-0.9-1.6C45.6,14.2,40,18.9,39.9,24.4z"/>
	<path d="M66.7,19.4c2.3,0,4.5,0,6.7,0c0,0.5,0,1,0,1.7c-1.6,0-3.1,0-4.8,0c0,0.9,0,1.7,0,2.7c1.5,0,2.9,0,4.5,0c0,0.7,0,1.2,0,1.8
		c-1.5,0-3,0-4.4,0c-0.5,2.4,0.1,3.1,2.3,3.1c0.8,0,1.6,0,2.6,0c0,0.6,0,1.1,0,1.7c-1.5,0-2.9,0.1-4.4,0c-1.4-0.1-2.3-1-2.4-2.5
		C66.7,25,66.7,22.2,66.7,19.4z"/>
	<path d="M86.3,26.8c-2,0-4,0-6.1,0c0.3,2.2,2.2,2.7,4.5,1.3c0.3,0.3,0.7,0.6,1,0.9c-1.4,1.7-3.8,2-5.7,0.9c-1.7-1-2.4-3.4-1.5-5.4
		c0.8-1.8,2.8-2.8,4.9-2.2C85.5,22.8,86.6,24.5,86.3,26.8z M84.5,25.4c-0.3-1.1-1-1.6-2-1.6c-1.1,0-1.9,0.4-2.3,1.6
		C81.7,25.4,83,25.4,84.5,25.4z"/>
	<path d="M115.4,26.4c0,2.4-2,4.2-4.4,4.2c-2.4,0-4.3-1.9-4.3-4.2c0-2.4,1.9-4.3,4.4-4.3C113.5,22.2,115.4,24,115.4,26.4z
		 M113.6,26.4c0-1.4-1.1-2.5-2.5-2.5c-1.4,0-2.5,1.1-2.5,2.6c0,1.4,1.1,2.5,2.5,2.4C112.5,28.9,113.6,27.8,113.6,26.4z"/>
	<path d="M120,22.4c0.7,0,1.2,0,1.9,0c0,1.5,0,3.1,0,4.6c0,1.4,0.9,2.1,2.1,1.8c1-0.2,1.4-0.8,1.4-1.8c0-1.5,0-3,0-4.6
		c0.6,0,1.2,0,1.8,0c0,1.9,0.1,3.8,0,5.6c-0.2,1.7-1.8,2.6-3.7,2.5c-2-0.1-3.3-1.1-3.4-2.9C119.9,26,120,24.3,120,22.4z"/>
	<path d="M136.3,30.2c-2.5,0.8-2.7-1.5-3.9-2.5c-1.3,0.8-1.4,3.4-4,2.5c0.8-1.1,1.6-2.3,2.4-3.3c0.4-0.5,0.4-0.9,0-1.5
		c-0.7-0.9-1.4-1.9-2.1-2.9c2.2-0.9,2.6,1.1,3.7,2.1c0.5-0.6,0.8-1.4,1.4-1.8c0.5-0.4,1.3-0.5,2-0.7c0.1,0.1,0.1,0.3,0.2,0.4
		c-0.7,0.9-1.3,1.8-2,2.7c-0.5,0.6-0.6,1.1,0,1.7C134.8,28,135.5,29.1,136.3,30.2z"/>
	<path d="M95,29.2c-1.8,1.9-4.6,1.9-6.4,0.1c-1.6-1.7-1.6-4.4,0.1-6c1.8-1.7,4.6-1.6,6.2,0.2c-0.3,0.3-0.6,0.7-0.9,1
		c-2.2-1-3.4-0.9-4.2,0.3c-0.7,1-0.6,2.4,0.3,3.3c0.9,1,2.2,1,3.9-0.1C94.3,28.4,94.6,28.8,95,29.2z"/>
	<path d="M96.4,19.4c0.6,0,1.1,0,1.7,0c0,1,0,1.9,0,2.8c0.6,0.1,1.1,0.2,1.7,0.2c0,0.5,0,0.9,0,1.5c-0.5,0.1-1,0.1-1.5,0.2
		c-0.7,2.6-0.3,3.9,1.5,4.6c0,0.5,0,1,0,1.5c-1.9,0.1-3.3-0.6-3.4-2.1C96.3,25.2,96.4,22.3,96.4,19.4z"/>
	<path d="M75.1,19.4c0.6,0,1.2,0,1.8,0c0,3.7,0,7.3,0,10.9c-0.6,0-1.1,0-1.8,0C75.1,26.7,75.1,23.1,75.1,19.4z"/>
	<path d="M103.4,30.4c-0.7,0-1.2,0-1.7,0c0-2.6,0-5.2,0-8.1c0.7,0.2,1.4,0.4,2.2,0.6c0.5-0.2,1.4-0.5,2.4-0.8c0,0.8,0,1.4,0,1.9
		c-2.6,0.3-2.9,0.7-2.9,3.3C103.4,28.3,103.4,29.3,103.4,30.4z"/>
	<path d="M116.7,19.4c0.6,0,1.1,0,1.7,0c0,3.7,0,7.3,0,10.9c-0.5,0-1.1,0-1.7,0C116.7,26.7,116.7,23.1,116.7,19.4z"/>
	<path class="st0" d="M53.1,15.7c3.6,0.7,6.6,4.8,6.8,9c0.1,4.3-2.8,8.5-6.8,9.6C53.1,28.1,53.1,21.9,53.1,15.7z"/>
	<path class="st0" d="M39.9,25.6c5.4-0.9,10.8,2.5,11.9,7.5c0.3,1.6,0.2,1.7-1.4,1.9C45,35.3,39.9,30.9,39.9,25.6z"/>
	<path class="st0" d="M39.9,24.4c0.1-5.6,5.7-10.2,11-9.4c1.1,0.2,1,0.8,0.9,1.6c-0.7,4-4.8,7.6-9.1,7.8
		C41.8,24.5,40.9,24.4,39.9,24.4z"/>
	<path class="st0" d="M84.5,25.4c-1.5,0-2.8,0-4.3,0c0.4-1.2,1.2-1.7,2.3-1.6C83.5,23.8,84.2,24.3,84.5,25.4z"/>
	<path class="st0" d="M113.6,26.4c0,1.4-1.1,2.5-2.5,2.5c-1.4,0-2.5-1-2.5-2.4c0-1.5,1.1-2.6,2.5-2.6
		C112.4,23.9,113.5,25,113.6,26.4z"/>
</g>
</svg>
