<?xml version="1.0" encoding="utf-8"?>
<!-- Generator: Adobe Illustrator 25.2.1, SVG Export Plug-In . SVG Version: 6.00 Build 0)  -->
<svg version="1.1" id="Capa_1" xmlns="http://www.w3.org/2000/svg" xmlns:xlink="http://www.w3.org/1999/xlink" x="0px" y="0px"
	 viewBox="0 0 175 50" style="enable-background:new 0 0 175 50;" xml:space="preserve">
<style type="text/css">
	.st0{fill-rule:evenodd;clip-rule:evenodd;fill:#1C1C1B;}
	.st1{fill-rule:evenodd;clip-rule:evenodd;fill:#FFFFFF;}
</style>
<g>
	<path class="st0" d="M35.8,21c1.3,2.3,1.4,5.8,0,8c-1.8,3-5.1,4.6-8.6,4.1c-2.7-0.4-5.5-2.4-6.5-5.1c-1.3-3.1-0.4-6.7,2-8.9
		c2.5-2.4,6.5-2.9,9.5-1.4C33.6,18.4,35,19.6,35.8,21L35.8,21L35.8,21L35.8,21z"/>
	<path class="st1" d="M35.7,21.7c1.1,2.5,0.9,6-1,8.1c-1.8,2.2-4.4,3.3-7.4,2.9c-2.5-0.3-4.8-2-6-4.2c-1.3-2.5-1-6.2,0.9-8.4
		c2-2.4,5-3.3,8.1-2.7C32.6,17.8,34.7,19.6,35.7,21.7L35.7,21.7L35.7,21.7L35.7,21.7z"/>
	<path class="st0" d="M30.2,17.8c-1,0-2.2-0.2-2.7,0.7c0,0.3,0,0.6,0.3,0.7c1,0,1.7-1.2,2.9-0.6c2.2,0.2,4.3,1.9,4.9,4
		c0.4,1.2,0.6,2.7,0.2,3.9c0-0.9,0.2-2-0.6-2.5c-0.3-0.1-0.6,0-0.8,0.2c-0.1,0.9,1,1.3,0.8,2.3c-0.1,2.2-1.5,4.2-3.5,5.1
		c-1.3,0.5-2.8,0.9-4.3,0.5c0.7,0.1,1.7,0,2.2-0.7c0-0.3,0-0.6-0.3-0.8c-0.9,0-1.6,1-2.7,0.6c-1.9-0.2-3.8-1.4-4.7-3.2
		c-0.7-1.4-1-3.4-0.4-5.1c-0.1,0.9-0.2,2,0.4,2.6c0.1,0.2,0.4,0.2,0.7,0.1c0.3-0.2,0.4-0.6,0.2-0.9c-0.6-0.7-0.7-1.6-0.5-2.5
		c0.3-1.9,1.9-3.8,3.8-4.4C27.1,17.6,28.8,17.5,30.2,17.8L30.2,17.8L30.2,17.8L30.2,17.8z"/>
	<path class="st1" d="M27.9,21c0.2,1.3-0.9,2.2-1.9,2.8c0,0.2,0.2,0.3,0.4,0.3c1.3,0.1,0.9-1.7,2-1.6c0.4,0.8-1,1.1-0.5,1.9
		c0.6-0.3,1.2-0.7,1.8-1.2c-0.1-1.1,0.2-2.1,1.1-2.6c0.3-0.1,0.7-0.1,1,0c0.3,0.2,0.3,0.7,0.2,1.1c-0.3,0.8-0.9,1.1-1.5,1.7
		c0.1,0.9,1.1,0,1.5,0.6c0.1,0.3-0.2,0.5-0.5,0.5c-0.5-0.1-1,0-1.4,0.3c-0.5,0.4-0.7,1-0.8,1.6c0,0.9,0.3,1.8,1.2,2.1
		c0.6,0,1.1,0,1.4-0.4c0.3-0.3,0.4-0.7,0.4-1.1c0-0.4-0.1-0.8-0.6-1c-0.3-0.1-0.7,0-0.8,0.3c-0.3,0.5,0.7,0.9,0,1.3
		c-0.4,0-0.6-0.5-0.8-0.8c0-0.4,0.1-0.8,0.4-1.1c0.4-0.2,0.8-0.4,1.3-0.3c0.7,0.1,1,0.8,1.2,1.4c0,0.6-0.1,1.2-0.5,1.7
		c-0.5,0.5-1.1,0.7-1.8,0.7c-0.6-0.1-1.2-0.3-1.7-0.8c-0.5-0.8-0.8-2-0.3-2.9c0.3-0.6,0.8-1,1.3-1.3c0.1-0.1,0-0.2-0.1-0.3
		c-0.8,0.2-1.4,0.9-2.1,1.3c-0.2,1.5-0.3,3.3-1.9,3.9c-0.5,0.1-1,0.2-1.4,0c-0.5-0.3-0.6-0.8-0.6-1.4c0.4-1.6,2-2.1,3.2-2.8
		c0.1-0.1,0.1-0.2,0.1-0.3c-0.3-0.1-0.7,0.3-1.2,0.1c-0.7-0.1-0.6-1.1-1.3-1.1c-0.4-0.4-0.5-1.1-0.3-1.6c0.1-0.1,0.2-0.2,0.3-0.3
		c0.1,0.5-0.2,1.3,0.5,1.5c0.2-1.1,0.7-2.3,1.8-2.6C27.4,20.6,27.9,20.7,27.9,21L27.9,21L27.9,21L27.9,21z"/>
	<path class="st0" d="M27.3,21.3c0,0.7-0.6,1.3-1.2,1.7c0-0.7,0.3-1.4,1-1.8C27.2,21.2,27.3,21.2,27.3,21.3L27.3,21.3L27.3,21.3
		L27.3,21.3z"/>
	<path class="st0" d="M31.4,21.3c0,0.6-0.5,1-1,1.3c0-0.6,0.2-1.1,0.7-1.4C31.2,21.2,31.4,21.2,31.4,21.3L31.4,21.3L31.4,21.3
		L31.4,21.3z"/>
	<path class="st0" d="M27,25.7c-0.1,1.1-0.4,2.2-1.4,2.8c-0.4,0-0.7-0.1-0.8-0.4C24.8,26.9,26,26.2,27,25.7L27,25.7L27,25.7L27,25.7
		z"/>
	<path d="M49.4,23c0.1-1.3-0.8-1.3-1.6-1.3c-2,0-2.2,0.8-2.5,2.9l0,0L45,26.6l0,0c-0.3,2.3,0.3,2.5,1.7,2.5c1.4,0,1.8-0.4,2.1-2.2
		l0,0h-1.9l0.3-2.4H52l-0.3,2.3l0,0C51,31.2,50,32,46.3,32c-3.3,0-4.8-0.7-4.2-4.9l0,0l0.5-3.4l0,0c0.6-4.3,2.6-4.9,5.6-4.9
		c2.7,0,4.5,0.6,4,4.1l0,0H49.4L49.4,23L49.4,23z"/>
	<path d="M59.4,28.9c-0.2,1.4-0.7,2.1-1.4,2.6c-0.7,0.4-1.6,0.5-2.6,0.5c-2.9,0-3.4-1.2-2.9-4.6c0.5-3.5,1.3-4.7,4.2-4.7
		c2.7,0,3.4,1,2.9,4.7l0,0l-0.1,0.5h-4.7l0,0c-0.2,1.6-0.1,2.1,0.9,2.1c0.7,0,1.2-0.1,1.4-1.1l0,0H59.4L59.4,28.9L59.4,28.9z
		 M57.4,26.2c0.2-1.4-0.2-1.4-1-1.4c-0.8,0-1.1,0.2-1.3,1.4l0,0H57.4L57.4,26.2L57.4,26.2z"/>
	<path d="M62.6,31.9h-2.4l1.3-9.1h2.4l-0.2,1.7h0.1l0,0c0.6-1.4,1.3-1.8,2.4-1.8c1.6,0,2.2,1,1.9,2.9l0,0l-0.9,6.3h-2.4l0.8-5.6l0,0
		c0.1-0.9,0-1.3-0.8-1.3c-1.1,0-1.4,0.8-1.5,1.9l0,0L62.6,31.9L62.6,31.9L62.6,31.9z"/>
	<path d="M75.9,28.9c-0.2,1.4-0.7,2.1-1.4,2.6C73.9,31.9,73,32,71.9,32c-2.9,0-3.4-1.2-2.9-4.6c0.5-3.5,1.3-4.7,4.2-4.7
		c2.7,0,3.4,1,2.9,4.7l0,0l-0.1,0.5h-4.7l0,0c-0.2,1.6-0.1,2.1,0.9,2.1c0.7,0,1.2-0.1,1.4-1.1l0,0H75.9L75.9,28.9L75.9,28.9z
		 M73.9,26.2c0.2-1.4-0.2-1.4-1-1.4c-0.8,0-1.1,0.2-1.3,1.4l0,0H73.9L73.9,26.2L73.9,26.2z"/>
	<path d="M79.1,31.9h-2.4l1.3-9.1h2.3l-0.2,1.3h0.1l0,0c0.5-1,1.1-1.4,2-1.4c1.7,0,1.6,1.7,1.3,3.4l0,0l-0.1,0.7h-2.1l0.1-0.4l0,0
		c0.1-0.6,0.2-1.4-0.4-1.4c-0.7,0-1,0.7-1.1,1.5l0,0L79.1,31.9L79.1,31.9L79.1,31.9z"/>
	<path d="M88.4,30.6C88,31.8,86.9,32,86.1,32c-1.7,0-2.6-0.5-2.2-2.8c0.3-2.2,1.3-2.9,3-2.9c0.7,0,1.7,0,1.8,1l0,0h0.1l0.2-1.4l0,0
		c0.1-0.8,0.2-1.4-0.9-1.4c-0.6,0-1,0.2-1.1,1l0,0h-2.4l0,0c0.4-2.8,2.1-2.8,3.8-2.8c2.4,0,3.4,0.4,3,3.5l0,0l-0.8,5.7h-2.4
		L88.4,30.6L88.4,30.6L88.4,30.6L88.4,30.6z M87.4,28.2c-0.6,0-1.1,0.1-1.2,1c-0.1,1,0.5,1,0.9,1c1,0,1.3-0.2,1.5-1.1
		C88.7,28.2,88.2,28.2,87.4,28.2L87.4,28.2L87.4,28.2L87.4,28.2z"/>
	<polygon points="94.5,31.9 92.1,31.9 94,18.9 96.4,18.9 94.5,31.9 94.5,31.9 	"/>
	<polygon points="105.1,24.1 109.5,24.1 109.2,26.6 104.7,26.6 104.4,29.1 109.2,29.1 108.8,31.9 101.2,31.9 103.1,18.9 110.6,18.9 
		110.1,21.8 105.4,21.8 105.1,24.1 105.1,24.1 	"/>
	<polygon points="112.9,31.9 110.5,31.9 112.4,18.9 114.8,18.9 112.9,31.9 112.9,31.9 	"/>
	<path d="M121.7,28.9c-0.2,1.4-0.7,2.1-1.4,2.6c-0.7,0.4-1.6,0.5-2.6,0.5c-2.9,0-3.4-1.2-2.9-4.6c0.5-3.5,1.3-4.7,4.2-4.7
		c2.7,0,3.4,1,2.9,4.7l0,0l-0.1,0.5h-4.7l0,0c-0.2,1.6-0.1,2.1,0.9,2.1c0.7,0,1.2-0.1,1.4-1.1l0,0H121.7L121.7,28.9L121.7,28.9z
		 M119.7,26.2c0.2-1.4-0.2-1.4-1-1.4c-0.8,0-1.1,0.2-1.3,1.4l0,0H119.7L119.7,26.2L119.7,26.2z"/>
	<path d="M129.6,28.3c-0.2,1.7-0.7,2.6-1.3,3.1c-0.6,0.5-1.5,0.7-2.8,0.7c-2.8,0-3.3-1.1-2.8-4.6c0.4-3.1,1.2-4.7,4.1-4.7
		c2.1,0,3.5,0.4,3,3.5l0,0h-2.4l0,0c0.1-0.5,0.1-0.8-0.1-1c-0.1-0.2-0.4-0.3-0.9-0.3c-0.8,0-1.1,0.3-1.4,2.4
		c-0.3,2.1-0.1,2.4,0.8,2.4c1.1,0,1.2-0.3,1.3-1.5l0,0H129.6L129.6,28.3L129.6,28.3z"/>
	<path d="M136.6,25h-2.8l-0.6,4.1l0,0c-0.1,0.5,0,0.8,0.4,0.8c0.6,0,0.7-0.6,0.8-1.2l0,0l0.1-0.5h1.9l-0.1,0.8l0,0
		c-0.4,2.5-1.2,3-3.1,3c-1.5,0-2.7-0.2-2.4-2.5l0,0l0.6-4.5h-0.9l0.3-2.2h0.9l0.3-1.9h2.4l-0.3,1.9h2.8L136.6,25L136.6,25L136.6,25z
		"/>
	<path d="M139.2,31.9h-2.4l1.3-9.1h2.3l-0.2,1.3h0.1l0,0c0.5-1,1.1-1.4,2-1.4c1.7,0,1.6,1.7,1.3,3.4l0,0l-0.1,0.7h-2.1l0.1-0.4l0,0
		c0.1-0.6,0.2-1.4-0.4-1.4c-0.7,0-1,0.7-1.1,1.5l0,0L139.2,31.9L139.2,31.9L139.2,31.9z"/>
	<path d="M146,31.9h-2.4l1.3-9.1h2.4L146,31.9L146,31.9L146,31.9z M147.5,21.2h-2.4l0.3-2.3h2.4L147.5,21.2L147.5,21.2L147.5,21.2z"
		/>
	<path d="M154.5,28.3c-0.2,1.7-0.7,2.6-1.3,3.1c-0.6,0.5-1.5,0.7-2.8,0.7c-2.8,0-3.3-1.1-2.8-4.6c0.4-3.1,1.2-4.7,4.1-4.7
		c2.1,0,3.5,0.4,3,3.5l0,0h-2.4l0,0c0.1-0.5,0.1-0.8-0.1-1c-0.1-0.2-0.4-0.3-0.9-0.3c-0.8,0-1.1,0.3-1.4,2.4
		c-0.3,2.1-0.1,2.4,0.8,2.4c1.1,0,1.2-0.3,1.3-1.5l0,0H154.5L154.5,28.3L154.5,28.3z"/>
</g>
</svg>
