<?xml version="1.0" encoding="utf-8"?>
<!-- Generator: Adobe Illustrator 25.2.1, SVG Export Plug-In . SVG Version: 6.00 Build 0)  -->
<svg version="1.1" id="Capa_1" xmlns="http://www.w3.org/2000/svg" xmlns:xlink="http://www.w3.org/1999/xlink" x="0px" y="0px"
	 viewBox="0 0 175 50" style="enable-background:new 0 0 175 50;" xml:space="preserve">
<style type="text/css">
	.st0{fill-rule:evenodd;clip-rule:evenodd;}
	.st1{fill:#000001;}
	.st2{clip-path:url(#SVGID_3_);fill:#000001;}
	.st3{fill-rule:evenodd;clip-rule:evenodd;fill:#000001;}
	.st4{stroke:#FFFFFF;stroke-width:0.25;stroke-miterlimit:10;}
	.st5{fill:#FFFFFF;}
	.st6{clip-path:url(#SVGID_5_);}
	.st7{clip-path:url(#SVGID_7_);}
	.st8{fill:#1A171B;}
	.st9{fill-rule:evenodd;clip-rule:evenodd;fill:#1A171B;}
	.st10{fill:#1A1413;}
	.st11{fill-rule:evenodd;clip-rule:evenodd;fill:#1A1413;}
	.st12{fill:none;}
	.st13{fill:#1C1C1B;}
	.st14{clip-path:url(#SVGID_9_);fill:#1C1C1B;}
	.st15{clip-path:url(#SVGID_11_);fill:#1C1C1B;}
	.st16{clip-path:url(#SVGID_13_);fill:#FFFFFF;}
	.st17{clip-path:url(#SVGID_13_);}
	.st18{fill:#C3E1F5;}
	.st19{fill:#00A0DF;}
	.st20{fill:#2D2A26;}
	.st21{fill:#FFCD00;}
	.st22{fill:#85754E;}
	.st23{clip-path:url(#SVGID_15_);}
	.st24{clip-path:url(#SVGID_17_);}
	.st25{clip-path:url(#SVGID_19_);fill:#2D2A26;}
	.st26{clip-path:url(#SVGID_21_);fill:#2D2A26;}
	.st27{clip-path:url(#SVGID_23_);fill:#2D2A26;}
	.st28{clip-path:url(#SVGID_25_);fill:#2D2A26;}
	.st29{clip-path:url(#SVGID_27_);fill:#2D2A26;}
	.st30{fill-rule:evenodd;clip-rule:evenodd;fill:#B01842;}
	.st31{fill:none;stroke:#000000;stroke-width:0.5;stroke-miterlimit:33.89;}
	.st32{fill:none;stroke:#259271;stroke-width:0.5;stroke-miterlimit:33.89;}
	.st33{fill:none;stroke:#FFFFFF;stroke-width:0.5;stroke-linecap:round;stroke-linejoin:round;stroke-miterlimit:33.89;}
	.st34{fill:none;stroke:#000000;stroke-width:0.5;stroke-linecap:round;stroke-linejoin:round;stroke-miterlimit:33.89;}
	.st35{fill:none;stroke:#000000;stroke-width:0.2;stroke-miterlimit:33.89;}
	.st36{fill:#9C080D;}
	.st37{opacity:0.4;fill:#221E1F;}
	.st38{fill:#F9F9FA;}
	.st39{opacity:0.2;}
	.st40{opacity:0.15;}
	.st41{fill:#1C1C1B;stroke:#1C1C1B;stroke-width:0.1;stroke-miterlimit:10;}
	.st42{fill:#221E1F;}
	.st43{fill:#33530D;}
	.st44{fill:#221E1F;stroke:#FFFFFF;stroke-miterlimit:10;}
	.st45{fill-rule:evenodd;clip-rule:evenodd;fill:#FFFFFF;stroke:#221E1F;stroke-miterlimit:10;}
	.st46{fill-rule:evenodd;clip-rule:evenodd;fill:#FFFFFF;}
	.st47{fill:#221E1F;stroke:#221E1F;stroke-miterlimit:10;}
	.st48{fill:#F6F6F6;}
	.st49{clip-path:url(#SVGID_31_);}
	.st50{fill:#FFFFFF;stroke:#000000;stroke-miterlimit:10;}
	.st51{fill:#FFFFFF;stroke:#000000;stroke-width:0.5;stroke-miterlimit:10;}
	.st52{stroke:#000000;stroke-miterlimit:10;}
	.st53{fill:none;stroke:#000000;stroke-miterlimit:10;}
	.st54{fill:none;stroke:#000000;stroke-width:0.5;stroke-miterlimit:10;}
</style>
<g>
	<path d="M87.3,40c-1.4-0.4-3-0.8-4.6-1.3c-11.4-3.7-22.8-7.4-34.2-11c-1.6-0.5-2.4-1.8-2.1-3.4c0.2-1.1,1-1.8,2.1-2.2
		c6.4-2,12.8-4.1,19.2-6.1c5.8-1.8,11.5-3.7,17.3-5.5c1.7-0.6,3.4-0.6,5.2,0c12.1,3.9,24.2,7.8,36.3,11.6c1.5,0.5,2.2,1.4,2.2,2.8
		s-0.7,2.3-2.2,2.8c-12.1,3.9-24.3,7.8-36.4,11.6C89.2,39.6,88.3,39.7,87.3,40z M87.5,11.1c-0.8,0.2-1.6,0.3-2.3,0.5
		C73.1,15.5,61,19.3,49,23.2c-1.1,0.3-1.6,0.9-1.5,1.8c0,0.8,0.5,1.4,1.5,1.7c12.1,3.9,24.1,7.7,36.2,11.6c1.6,0.5,3.1,0.5,4.7,0
		c12.1-3.9,24.2-7.7,36.3-11.6c1-0.3,1.5-0.9,1.5-1.7c0-0.8-0.5-1.4-1.5-1.7c-12.1-3.9-24.2-7.8-36.3-11.6
		C89,11.4,88.3,11.3,87.5,11.1z"/>
	<path d="M71.8,20.1c-0.2,1.2-0.4,2.3-0.6,3.6c0.9,0,1.8,0,2.6,0c0.1,0,0.3-0.3,0.3-0.5c0.2-0.8,0.3-1.6,0.4-2.3
		c0.1-0.5,0.3-0.7,0.8-0.7s1,0,1.6,0c-0.3,1.7-0.5,3.2-0.8,4.8c-0.3,1.6-0.5,3.1-0.8,4.7c-0.7,0-1.4,0-2.2,0
		c0.2-1.3,0.4-2.5,0.6-3.8c-0.9,0-1.7,0-2.5,0c-0.2,0-0.4,0.3-0.4,0.5c-0.2,0.9-0.3,1.8-0.5,2.7c0,0.2-0.4,0.5-0.6,0.5
		c-0.5,0.1-1.1,0-1.7,0c0.4-2.3,0.8-4.4,1.1-6.6c0.1-0.8,0.3-1.6,0.4-2.3c0.1-0.5,0.2-0.6,0.7-0.6C70.7,20.2,71.2,20.1,71.8,20.1z"
		/>
	<path d="M99.1,29.8c0.2-1.3,0.4-2.5,0.6-3.7c0.4-2.1,0.8-4.2,1.1-6.3c0.1-0.7,0.3-1,1.1-0.9c0.3,0,0.7,0,1.1,0
		c-0.2,1.4-0.4,2.6-0.7,3.9c0.7-0.1,1.4-0.4,2.1-0.4c1.5,0,2.5,1,2.7,2.5c0.2,2.1-1,4.2-2.8,4.9c-1.2,0.4-2,0.3-3-0.4
		C100.8,30.2,100,29.7,99.1,29.8z M102,26.6c0,0.9,0.5,1.5,1.3,1.5c1,0,2-1,2-2.1c0-0.9-0.6-1.5-1.4-1.5
		C102.9,24.5,102,25.5,102,26.6z"/>
	<path d="M82.4,23c0.6-0.9,1.4-0.3,2.2-0.6c-0.4,2.6-0.8,4.9-1.2,7.3c-0.7-0.1-1.5,0.3-2.2-0.3c-0.1,0.1-0.4,0.2-0.6,0.3
		c-1.7,0.8-3.5-0.1-3.9-1.9s0.5-4,2.1-5C80,22,81.3,22.1,82.4,23z M82,25.8c0-0.9-0.5-1.5-1.3-1.5c-1,0-2,1-2,2.1
		c0,0.9,0.6,1.5,1.4,1.5C81,27.9,82,26.9,82,25.8z"/>
	<path d="M94.1,27c0.1,1.1,1.1,1.7,1.9,1.1s1.6-0.4,2.5-0.4c-0.2,1.2-2,2.5-3.4,2.5s-2.6-0.9-2.9-2.2c-0.6-2.3,1.2-5,3.5-5.4
		c1.1-0.2,2.1,0.1,2.8,1c0.7,1,0.8,2.1,0.5,3.2c0,0.1-0.4,0.3-0.6,0.3c-1.2,0-2.4,0-3.6,0C94.6,27,94.4,27,94.1,27z M94.4,25.4
		c1,0,1.9,0,2.9,0c-0.1-0.7-0.5-1-1.1-1.1C95.4,24.2,94.8,24.6,94.4,25.4z"/>
	<path d="M91.3,27.2c-0.5,2-3,3.4-4.9,2.7c-1.1-0.4-1.8-1.5-1.9-2.8c-0.1-1.9,1.3-3.9,3.1-4.5c2.1-0.7,4.2,0.7,4,2.8
		c-0.8-0.1-1.7,0.4-2.3-0.6c-0.2-0.3-0.9-0.4-1.4-0.3c-1.1,0.2-1.8,1.8-1.3,2.8c0.4,0.7,1.3,0.9,2.1,0.4C90,27.1,90,27.1,91.3,27.2z
		"/>
</g>
</svg>
