<?xml version="1.0" encoding="utf-8"?>
<!-- Generator: Adobe Illustrator 24.2.3, SVG Export Plug-In . SVG Version: 6.00 Build 0)  -->
<svg version="1.1" id="Capa_1" xmlns="http://www.w3.org/2000/svg" xmlns:xlink="http://www.w3.org/1999/xlink" x="0px" y="0px"
	 viewBox="0 0 175 50" style="enable-background:new 0 0 175 50;" xml:space="preserve">
<style type="text/css">
	.st0{fill-rule:evenodd;clip-rule:evenodd;}
	.st1{fill:#FFFFFF;}
	.st2{stroke:#FFFFFF;stroke-width:0.25;stroke-miterlimit:10;}
	.st3{fill:none;stroke:#000000;stroke-miterlimit:10;}
</style>
<g>
	<path class="st0" d="M77.6,10c-8.3,0-15,6.7-15,15s6.7,15,15,15s15-6.7,15-15S85.9,10,77.6,10L77.6,10z M72.1,17.7
		c1,0,1.8,0.8,1.8,1.8s-0.8,1.8-1.8,1.8s-1.8-0.8-1.8-1.8C70.3,18.5,71.1,17.7,72.1,17.7z M79.2,32.2h-2.1V18.1h1.4v12.7h2.8v1.4
		H79.2L79.2,32.2L79.2,32.2z M79.2,36.7c5.3-0.7,9.5-5,10.2-10.3h-8V25h9.3c0,6.6-5,12.2-11.4,13c-0.5,0.1-1,0.1-1.6,0.1
		c-2,0-3.9-0.4-5.5-1.2c-4.4-2.1-7.5-6.6-7.5-11.8s3.1-9.7,7.5-11.8c1.6-0.7,3.4-1.2,5.2-1.2v1.2c-1.8,0-3.6,0.5-5.2,1.4
		c-3.7,2-6.3,5.9-6.3,10.4s2.6,8.4,6.3,10.4c1.6,0.9,3.5,1.4,5.5,1.4C78.1,36.8,78.8,36.8,79.2,36.7L79.2,36.7z M93.6,30.6V20.3H97
		v7.9h4.6v2.4L93.6,30.6L93.6,30.6z M112.2,30.7h-2.2l-0.1-1c-0.6,0.7-1.5,1.3-3.1,1.3c-2.6,0-5-1.7-5-5.3c0-3.3,2.1-5.5,5.4-5.5
		c2.5,0,4.5,1.3,4.9,3.8H109c-0.2-0.9-0.9-1.3-1.7-1.3c-1.3,0-1.9,1.2-1.9,3c0,1.5,0.5,2.8,2.2,2.8c0.7,0,1.6-0.5,1.7-1.2h-1.5V25
		h4.6v5.7H112.2L112.2,30.7z"/>
</g>
</svg>
