<?xml version="1.0" encoding="utf-8"?>
<!-- Generator: Adobe Illustrator 25.2.1, SVG Export Plug-In . SVG Version: 6.00 Build 0)  -->
<svg version="1.1" id="Capa_1" xmlns="http://www.w3.org/2000/svg" xmlns:xlink="http://www.w3.org/1999/xlink" x="0px" y="0px"
	 viewBox="0 0 175 50" style="enable-background:new 0 0 175 50;" xml:space="preserve">
<style type="text/css">
	.st0{fill-rule:evenodd;clip-rule:evenodd;}
	.st1{fill:#000001;}
	.st2{clip-path:url(#SVGID_3_);fill:#000001;}
	.st3{fill-rule:evenodd;clip-rule:evenodd;fill:#000001;}
	.st4{stroke:#FFFFFF;stroke-width:0.25;stroke-miterlimit:10;}
	.st5{fill:#FFFFFF;}
	.st6{clip-path:url(#SVGID_5_);}
	.st7{clip-path:url(#SVGID_7_);}
	.st8{fill:#1A171B;}
	.st9{fill-rule:evenodd;clip-rule:evenodd;fill:#1A171B;}
	.st10{fill:#1A1413;}
	.st11{fill-rule:evenodd;clip-rule:evenodd;fill:#1A1413;}
	.st12{fill:none;}
	.st13{fill:#1C1C1B;}
	.st14{clip-path:url(#SVGID_9_);fill:#1C1C1B;}
	.st15{clip-path:url(#SVGID_11_);fill:#1C1C1B;}
	.st16{clip-path:url(#SVGID_13_);fill:#FFFFFF;}
	.st17{clip-path:url(#SVGID_13_);}
	.st18{fill:#C3E1F5;}
	.st19{fill:#00A0DF;}
	.st20{fill:#2D2A26;}
	.st21{fill:#FFCD00;}
	.st22{fill:#85754E;}
	.st23{clip-path:url(#SVGID_15_);}
	.st24{clip-path:url(#SVGID_17_);}
	.st25{clip-path:url(#SVGID_19_);fill:#2D2A26;}
	.st26{clip-path:url(#SVGID_21_);fill:#2D2A26;}
	.st27{clip-path:url(#SVGID_23_);fill:#2D2A26;}
	.st28{clip-path:url(#SVGID_25_);fill:#2D2A26;}
	.st29{clip-path:url(#SVGID_27_);fill:#2D2A26;}
	.st30{fill-rule:evenodd;clip-rule:evenodd;fill:#B01842;}
	.st31{fill:none;stroke:#000000;stroke-width:0.5;stroke-miterlimit:33.89;}
	.st32{fill:none;stroke:#259271;stroke-width:0.5;stroke-miterlimit:33.89;}
	.st33{fill:none;stroke:#FFFFFF;stroke-width:0.5;stroke-linecap:round;stroke-linejoin:round;stroke-miterlimit:33.89;}
	.st34{fill:none;stroke:#000000;stroke-width:0.5;stroke-linecap:round;stroke-linejoin:round;stroke-miterlimit:33.89;}
	.st35{fill:none;stroke:#000000;stroke-width:0.2;stroke-miterlimit:33.89;}
	.st36{fill:#9C080D;}
	.st37{opacity:0.4;fill:#221E1F;}
	.st38{fill:#F9F9FA;}
	.st39{opacity:0.2;}
	.st40{opacity:0.15;}
	.st41{fill:#1C1C1B;stroke:#1C1C1B;stroke-width:0.1;stroke-miterlimit:10;}
	.st42{fill:#221E1F;}
	.st43{fill:#33530D;}
	.st44{fill:#221E1F;stroke:#FFFFFF;stroke-miterlimit:10;}
	.st45{fill-rule:evenodd;clip-rule:evenodd;fill:#FFFFFF;stroke:#221E1F;stroke-miterlimit:10;}
	.st46{fill-rule:evenodd;clip-rule:evenodd;fill:#FFFFFF;}
	.st47{fill:#221E1F;stroke:#221E1F;stroke-miterlimit:10;}
	.st48{fill:#F6F6F6;}
	.st49{clip-path:url(#SVGID_31_);}
	.st50{fill:#FFFFFF;stroke:#000000;stroke-miterlimit:10;}
	.st51{fill:#FFFFFF;stroke:#000000;stroke-width:0.5;stroke-miterlimit:10;}
	.st52{stroke:#000000;stroke-miterlimit:10;}
	.st53{fill:none;stroke:#000000;stroke-miterlimit:10;}
	.st54{fill:none;stroke:#000000;stroke-width:0.5;stroke-miterlimit:10;}
</style>
<g>
	<path d="M72.9,26.1c-0.4-3.7-4.4-3.4-4.4-3.4c-3.1,0-4.4,2.7-4.4,2.7c-2.8-3.1-5.9-2.4-5.9-2.4c-1.5,0.1-2.9,1.3-3.7,2.2v-1.6h-4.3
		v13.3h4.2v-8.7c1.1-1.6,2.8-1.6,2.7-1.5c1.8-0.1,2.4,1.1,2.4,1.1v9.3h4.3v-9c0.7-1.6,2.5-1.4,2.5-1.4c1.5,0.1,2.1,0.9,2.3,1.4
		l0.1,9.1h4.2V26.1L72.9,26.1z"/>
	<path d="M124.8,29.9c0-3.8-3.2-6.9-7.2-6.9s-7.2,3.1-7.2,6.9s3.2,6.9,7.2,6.9c3.1,0,5.7-1.9,6.7-4.4h-3.9c-1.5,2.6-3.9,1.6-3.9,1.6
		c-1.9-0.8-2.3-3.3-2.3-3.3h10.4C124.8,30.3,124.8,30.1,124.8,29.9z M114.8,28.2c0.1-1.4,1.4-2.5,3-2.5c1.6,0,2.8,1.1,3,2.5H114.8z"
		/>
	<path d="M86.5,23.3v1.1c-1.2-0.9-2.8-1.5-4.4-1.5c-3.9,0-7.2,3.1-7.2,6.9s3.2,6.9,7.2,6.9c1.7,0,3.2-0.6,4.4-1.5v1.1h4.2V23.3H86.5
		z M83.1,33c-1.8,0-3.2-1.4-3.2-3.1c0-1.7,1.4-3.1,3.2-3.1c1.8,0,3.2,1.4,3.2,3.1C86.2,31.6,84.8,33,83.1,33z"/>
	<path d="M101.5,23c-1.6,0-3.1,0.5-4.3,1.4v-9.1H93v21.2h4.2v-1c1.2,0.9,2.7,1.4,4.3,1.4c3.9,0,7.2-3.1,7.2-6.9S105.4,23,101.5,23z
		 M100.2,33c-1.8,0-3.2-1.4-3.2-3.1c0-1.7,1.4-3.1,3.2-3.1c1.8,0,3.2,1.4,3.2,3.1C103.4,31.6,102,33,100.2,33z"/>
</g>
</svg>
