<?xml version="1.0" encoding="utf-8"?>
<!-- Generator: Adobe Illustrator 25.2.1, SVG Export Plug-In . SVG Version: 6.00 Build 0)  -->
<svg version="1.1" id="Capa_1" xmlns="http://www.w3.org/2000/svg" xmlns:xlink="http://www.w3.org/1999/xlink" x="0px" y="0px"
	 viewBox="0 0 175 50" style="enable-background:new 0 0 175 50;" xml:space="preserve">
<style type="text/css">
	.st0{fill:#0083A7;}
	.st1{fill-rule:evenodd;clip-rule:evenodd;fill:#FFFFFF;}
	.st2{fill-rule:evenodd;clip-rule:evenodd;fill:#AF0031;}
	.st3{fill-rule:evenodd;clip-rule:evenodd;fill:#5B5658;}
	.st4{fill-rule:evenodd;clip-rule:evenodd;}
	.st5{fill:#000001;}
	.st6{clip-path:url(#SVGID_3_);fill:#000001;}
	.st7{fill-rule:evenodd;clip-rule:evenodd;fill:#000001;}
	.st8{fill:#D10F26;}
	.st9{fill:#007ECA;}
	.st10{fill:#FFFFFF;}
	.st11{clip-path:url(#SVGID_5_);}
	.st12{clip-path:url(#SVGID_7_);}
	.st13{fill:#1A171B;}
	.st14{fill-rule:evenodd;clip-rule:evenodd;fill:#1A171B;}
	.st15{fill:#1A1413;}
	.st16{fill-rule:evenodd;clip-rule:evenodd;fill:#1A1413;}
	.st17{fill:none;}
	.st18{fill:#1C1C1B;}
	.st19{clip-path:url(#SVGID_9_);fill:#1C1C1B;}
	.st20{clip-path:url(#SVGID_11_);fill:#1C1C1B;}
	.st21{clip-path:url(#SVGID_13_);fill:#FFFFFF;}
	.st22{clip-path:url(#SVGID_13_);}
	.st23{fill:#C3E1F5;}
	.st24{fill:#00A0DF;}
	.st25{fill:#2D2A26;}
	.st26{fill:#FFCD00;}
	.st27{fill:#85754E;}
	.st28{clip-path:url(#SVGID_15_);}
	.st29{clip-path:url(#SVGID_17_);}
	.st30{clip-path:url(#SVGID_19_);fill:#2D2A26;}
	.st31{clip-path:url(#SVGID_21_);fill:#2D2A26;}
	.st32{clip-path:url(#SVGID_23_);fill:#2D2A26;}
	.st33{clip-path:url(#SVGID_25_);fill:#2D2A26;}
	.st34{clip-path:url(#SVGID_27_);fill:#2D2A26;}
	.st35{fill-rule:evenodd;clip-rule:evenodd;fill:#B01842;}
	.st36{fill:none;stroke:#000000;stroke-width:0.5;stroke-miterlimit:33.89;}
	.st37{fill:none;stroke:#259271;stroke-width:0.5;stroke-miterlimit:33.89;}
	.st38{fill:none;stroke:#FFFFFF;stroke-width:0.5;stroke-linecap:round;stroke-linejoin:round;stroke-miterlimit:33.89;}
	.st39{fill:none;stroke:#000000;stroke-width:0.5;stroke-linecap:round;stroke-linejoin:round;stroke-miterlimit:33.89;}
	.st40{fill:none;stroke:#000000;stroke-width:0.2;stroke-miterlimit:33.89;}
	.st41{fill:#9C080D;}
	.st42{opacity:0.4;fill:#221E1F;}
	.st43{fill:#F9F9FA;}
	.st44{opacity:0.2;}
	.st45{opacity:0.15;}
	.st46{fill:#1C1C1B;stroke:#1C1C1B;stroke-width:0.1;stroke-miterlimit:10;}
	.st47{fill:#221E1F;}
	.st48{fill:#33530D;}
	.st49{fill:#221E1F;stroke:#FFFFFF;stroke-miterlimit:10;}
	.st50{fill-rule:evenodd;clip-rule:evenodd;fill:#FFFFFF;stroke:#221E1F;stroke-miterlimit:10;}
	.st51{fill:#221E1F;stroke:#221E1F;stroke-miterlimit:10;}
	.st52{fill:#F6F6F6;}
	.st53{clip-path:url(#SVGID_31_);}
	.st54{fill:#FFFFFF;stroke:#000000;stroke-miterlimit:10;}
	.st55{fill:none;stroke:#000000;stroke-miterlimit:10;}
	.st56{fill:#FFFFFF;stroke:#000000;stroke-width:0.5;stroke-miterlimit:10;}
	.st57{stroke:#000000;stroke-miterlimit:10;}
	.st58{fill:none;stroke:#000000;stroke-width:0.5;stroke-miterlimit:10;}
	.st59{clip-path:url(#SVGID_33_);}
	.st60{clip-path:url(#SVGID_35_);}
	.st61{clip-path:url(#SVGID_37_);}
	.st62{clip-path:url(#SVGID_39_);}
	.st63{clip-path:url(#SVGID_41_);}
	.st64{clip-path:url(#SVGID_43_);}
	.st65{clip-path:url(#SVGID_45_);}
	.st66{clip-path:url(#SVGID_47_);}
	.st67{clip-path:url(#SVGID_49_);}
	.st68{clip-path:url(#SVGID_51_);}
	.st69{clip-path:url(#SVGID_53_);}
	.st70{clip-path:url(#SVGID_55_);}
	.st71{clip-path:url(#SVGID_57_);}
	.st72{clip-path:url(#SVGID_59_);}
	.st73{clip-path:url(#SVGID_61_);}
	.st74{clip-path:url(#SVGID_63_);}
	.st75{clip-path:url(#SVGID_65_);}
	.st76{clip-path:url(#SVGID_67_);}
	.st77{clip-path:url(#SVGID_69_);}
	.st78{clip-path:url(#SVGID_71_);}
	.st79{clip-path:url(#SVGID_73_);}
	.st80{clip-path:url(#SVGID_75_);}
	.st81{clip-path:url(#SVGID_77_);}
	.st82{clip-path:url(#SVGID_79_);}
	.st83{clip-path:url(#SVGID_81_);}
	.st84{clip-path:url(#SVGID_83_);}
	.st85{clip-path:url(#SVGID_85_);}
	.st86{clip-path:url(#SVGID_87_);}
	.st87{clip-path:url(#SVGID_89_);}
	.st88{clip-path:url(#SVGID_91_);}
	.st89{clip-path:url(#SVGID_93_);}
	.st90{clip-path:url(#SVGID_95_);}
	.st91{clip-path:url(#SVGID_97_);}
	.st92{clip-path:url(#SVGID_99_);}
	.st93{clip-path:url(#SVGID_101_);}
	.st94{clip-path:url(#SVGID_103_);}
	.st95{clip-path:url(#SVGID_105_);}
	.st96{clip-path:url(#SVGID_107_);}
	.st97{clip-path:url(#SVGID_109_);}
	.st98{clip-path:url(#SVGID_111_);}
	.st99{clip-path:url(#SVGID_113_);}
	.st100{clip-path:url(#SVGID_115_);}
	.st101{clip-path:url(#SVGID_117_);}
	.st102{clip-path:url(#SVGID_119_);}
	.st103{clip-path:url(#SVGID_121_);}
	.st104{clip-path:url(#SVGID_123_);}
	.st105{clip-path:url(#SVGID_125_);}
	.st106{clip-path:url(#SVGID_127_);}
	.st107{clip-path:url(#SVGID_129_);}
	.st108{clip-path:url(#SVGID_131_);}
	.st109{clip-path:url(#SVGID_133_);}
	.st110{clip-path:url(#SVGID_135_);}
	.st111{clip-path:url(#SVGID_137_);}
	.st112{clip-path:url(#SVGID_139_);}
	.st113{clip-path:url(#SVGID_141_);}
	.st114{clip-path:url(#SVGID_143_);}
	.st115{clip-path:url(#SVGID_145_);}
	.st116{clip-path:url(#SVGID_147_);}
	.st117{clip-path:url(#SVGID_149_);}
	.st118{clip-path:url(#SVGID_151_);}
	.st119{clip-path:url(#SVGID_153_);}
	.st120{clip-path:url(#SVGID_155_);}
	.st121{clip-path:url(#SVGID_157_);}
	.st122{clip-path:url(#SVGID_159_);}
	.st123{clip-path:url(#SVGID_161_);}
	.st124{clip-path:url(#SVGID_163_);}
	.st125{clip-path:url(#SVGID_165_);}
	.st126{clip-path:url(#SVGID_167_);}
	.st127{clip-path:url(#SVGID_169_);}
	.st128{clip-path:url(#SVGID_171_);}
	.st129{clip-path:url(#SVGID_173_);}
	.st130{clip-path:url(#SVGID_175_);}
	.st131{clip-path:url(#SVGID_177_);}
	.st132{clip-path:url(#SVGID_179_);}
	.st133{clip-path:url(#SVGID_181_);}
	.st134{clip-path:url(#SVGID_183_);}
	.st135{clip-path:url(#SVGID_185_);}
	.st136{clip-path:url(#SVGID_187_);}
	.st137{clip-path:url(#SVGID_189_);}
	.st138{clip-path:url(#SVGID_191_);}
	.st139{clip-path:url(#SVGID_193_);}
	.st140{clip-path:url(#SVGID_195_);}
	.st141{clip-path:url(#SVGID_197_);}
	.st142{clip-path:url(#SVGID_199_);}
	.st143{clip-path:url(#SVGID_201_);}
	.st144{clip-path:url(#SVGID_203_);}
	.st145{clip-path:url(#SVGID_205_);}
	.st146{clip-path:url(#SVGID_207_);}
	.st147{clip-path:url(#SVGID_209_);}
	.st148{clip-path:url(#SVGID_211_);}
	.st149{clip-path:url(#SVGID_213_);}
	.st150{clip-path:url(#SVGID_215_);}
	.st151{clip-path:url(#SVGID_217_);}
	.st152{clip-path:url(#SVGID_219_);}
	.st153{clip-path:url(#SVGID_221_);}
	.st154{clip-path:url(#SVGID_223_);}
	.st155{clip-path:url(#SVGID_225_);}
	.st156{clip-path:url(#SVGID_227_);}
	.st157{clip-path:url(#SVGID_229_);}
	.st158{clip-path:url(#SVGID_231_);}
	.st159{clip-path:url(#SVGID_233_);}
	.st160{clip-path:url(#SVGID_235_);}
	.st161{clip-path:url(#SVGID_237_);}
	.st162{clip-path:url(#SVGID_239_);}
	.st163{clip-path:url(#SVGID_241_);}
	.st164{clip-path:url(#SVGID_243_);}
	.st165{clip-path:url(#SVGID_245_);}
	.st166{clip-path:url(#SVGID_247_);}
	.st167{clip-path:url(#SVGID_249_);}
	.st168{clip-path:url(#SVGID_251_);}
	.st169{clip-path:url(#SVGID_253_);}
	.st170{clip-path:url(#SVGID_255_);}
	.st171{clip-path:url(#SVGID_257_);}
	.st172{clip-path:url(#SVGID_259_);}
	.st173{clip-path:url(#SVGID_261_);}
	.st174{clip-path:url(#SVGID_263_);}
	.st175{clip-path:url(#SVGID_265_);}
	.st176{clip-path:url(#SVGID_267_);}
	.st177{clip-path:url(#SVGID_269_);}
	.st178{clip-path:url(#SVGID_271_);}
	.st179{clip-path:url(#SVGID_273_);}
	.st180{clip-path:url(#SVGID_275_);}
	.st181{clip-path:url(#SVGID_277_);}
	.st182{clip-path:url(#SVGID_279_);}
	.st183{clip-path:url(#SVGID_281_);}
	.st184{clip-path:url(#SVGID_283_);}
	.st185{clip-path:url(#SVGID_285_);}
	.st186{clip-path:url(#SVGID_287_);}
	.st187{clip-path:url(#SVGID_289_);}
	.st188{clip-path:url(#SVGID_291_);}
	.st189{clip-path:url(#SVGID_293_);}
	.st190{clip-path:url(#SVGID_295_);}
	.st191{clip-path:url(#SVGID_297_);}
	.st192{clip-path:url(#SVGID_299_);}
	.st193{clip-path:url(#SVGID_301_);}
	.st194{clip-path:url(#SVGID_303_);}
	.st195{clip-path:url(#SVGID_305_);}
	.st196{clip-path:url(#SVGID_307_);}
	.st197{clip-path:url(#SVGID_309_);}
	.st198{clip-path:url(#SVGID_311_);}
	.st199{clip-path:url(#SVGID_313_);}
	.st200{clip-path:url(#SVGID_315_);}
	.st201{clip-path:url(#SVGID_317_);}
	.st202{clip-path:url(#SVGID_319_);}
	.st203{clip-path:url(#SVGID_321_);}
	.st204{clip-path:url(#SVGID_323_);}
	.st205{clip-path:url(#SVGID_325_);}
	.st206{clip-path:url(#SVGID_327_);}
	.st207{clip-path:url(#SVGID_329_);}
	.st208{clip-path:url(#SVGID_331_);}
	.st209{clip-path:url(#SVGID_333_);}
	.st210{clip-path:url(#SVGID_335_);}
	.st211{clip-path:url(#SVGID_337_);}
	.st212{clip-path:url(#SVGID_339_);}
	.st213{clip-path:url(#SVGID_341_);}
	.st214{clip-path:url(#SVGID_343_);}
	.st215{clip-path:url(#SVGID_345_);}
	.st216{clip-path:url(#SVGID_347_);}
	.st217{clip-path:url(#SVGID_349_);}
	.st218{clip-path:url(#SVGID_351_);}
	.st219{clip-path:url(#SVGID_353_);}
	.st220{clip-path:url(#SVGID_355_);}
	.st221{clip-path:url(#SVGID_357_);}
	.st222{clip-path:url(#SVGID_359_);}
	.st223{clip-path:url(#SVGID_361_);}
	.st224{clip-path:url(#SVGID_363_);}
	.st225{clip-path:url(#SVGID_365_);}
	.st226{clip-path:url(#SVGID_367_);}
	.st227{clip-path:url(#SVGID_369_);}
	.st228{clip-path:url(#SVGID_371_);}
	.st229{clip-path:url(#SVGID_373_);}
	.st230{clip-path:url(#SVGID_375_);}
	.st231{clip-path:url(#SVGID_377_);}
	.st232{clip-path:url(#SVGID_379_);}
	.st233{clip-path:url(#SVGID_381_);}
	.st234{clip-path:url(#SVGID_383_);}
	.st235{clip-path:url(#SVGID_385_);}
	.st236{clip-path:url(#SVGID_387_);}
	.st237{clip-path:url(#SVGID_389_);}
	.st238{clip-path:url(#SVGID_391_);}
	.st239{clip-path:url(#SVGID_393_);}
	.st240{clip-path:url(#SVGID_395_);}
	.st241{clip-path:url(#SVGID_397_);}
	.st242{clip-path:url(#SVGID_399_);}
	.st243{clip-path:url(#SVGID_401_);}
	.st244{clip-path:url(#SVGID_403_);}
	.st245{clip-path:url(#SVGID_405_);}
	.st246{clip-path:url(#SVGID_407_);}
	.st247{clip-path:url(#SVGID_409_);}
	.st248{clip-path:url(#SVGID_411_);}
	.st249{clip-path:url(#SVGID_413_);}
	.st250{clip-path:url(#SVGID_415_);}
	.st251{clip-path:url(#SVGID_417_);}
	.st252{clip-path:url(#SVGID_419_);}
	.st253{clip-path:url(#SVGID_421_);}
	.st254{clip-path:url(#SVGID_423_);}
	.st255{clip-path:url(#SVGID_425_);}
	.st256{clip-path:url(#SVGID_427_);}
	.st257{clip-path:url(#SVGID_429_);}
	.st258{clip-path:url(#SVGID_431_);}
	.st259{clip-path:url(#SVGID_433_);}
	.st260{clip-path:url(#SVGID_435_);}
	.st261{clip-path:url(#SVGID_437_);}
	.st262{clip-path:url(#SVGID_439_);}
	.st263{clip-path:url(#SVGID_441_);}
	.st264{clip-path:url(#SVGID_443_);}
	.st265{clip-path:url(#SVGID_445_);}
	.st266{clip-path:url(#SVGID_447_);}
	.st267{clip-path:url(#SVGID_449_);}
	.st268{clip-path:url(#SVGID_451_);}
	.st269{clip-path:url(#SVGID_453_);}
	.st270{clip-path:url(#SVGID_455_);}
	.st271{clip-path:url(#SVGID_457_);}
	.st272{clip-path:url(#SVGID_459_);}
	.st273{clip-path:url(#SVGID_461_);}
	.st274{clip-path:url(#SVGID_463_);}
	.st275{clip-path:url(#SVGID_465_);}
	.st276{clip-path:url(#SVGID_467_);}
	.st277{clip-path:url(#SVGID_469_);}
	.st278{clip-path:url(#SVGID_471_);}
	.st279{clip-path:url(#SVGID_473_);}
	.st280{clip-path:url(#SVGID_475_);}
	.st281{clip-path:url(#SVGID_477_);}
	.st282{clip-path:url(#SVGID_479_);}
	.st283{clip-path:url(#SVGID_481_);}
	.st284{clip-path:url(#SVGID_483_);}
	.st285{clip-path:url(#SVGID_485_);}
	.st286{clip-path:url(#SVGID_487_);}
	.st287{clip-path:url(#SVGID_489_);}
	.st288{clip-path:url(#SVGID_491_);}
	.st289{clip-path:url(#SVGID_493_);}
	.st290{clip-path:url(#SVGID_495_);}
	.st291{clip-path:url(#SVGID_497_);}
	.st292{clip-path:url(#SVGID_499_);}
	.st293{clip-path:url(#SVGID_501_);}
	.st294{clip-path:url(#SVGID_503_);}
	.st295{clip-path:url(#SVGID_505_);}
	.st296{clip-path:url(#SVGID_507_);}
	.st297{clip-path:url(#SVGID_509_);}
	.st298{clip-path:url(#SVGID_511_);}
	.st299{clip-path:url(#SVGID_513_);}
	.st300{clip-path:url(#SVGID_515_);}
	.st301{clip-path:url(#SVGID_517_);}
	.st302{clip-path:url(#SVGID_519_);}
	.st303{clip-path:url(#SVGID_521_);}
	.st304{clip-path:url(#SVGID_523_);}
	.st305{clip-path:url(#SVGID_525_);}
	.st306{clip-path:url(#SVGID_527_);}
	.st307{clip-path:url(#SVGID_529_);}
	.st308{clip-path:url(#SVGID_531_);}
	.st309{clip-path:url(#SVGID_533_);}
	.st310{clip-path:url(#SVGID_535_);}
	.st311{clip-path:url(#SVGID_537_);}
	.st312{clip-path:url(#SVGID_539_);}
	.st313{clip-path:url(#SVGID_541_);}
	.st314{clip-path:url(#SVGID_543_);}
	.st315{clip-path:url(#SVGID_545_);}
	.st316{clip-path:url(#SVGID_547_);}
	.st317{clip-path:url(#SVGID_549_);}
	.st318{clip-path:url(#SVGID_551_);}
	.st319{clip-path:url(#SVGID_553_);}
	.st320{clip-path:url(#SVGID_555_);}
	.st321{clip-path:url(#SVGID_557_);}
	.st322{clip-path:url(#SVGID_559_);}
	.st323{clip-path:url(#SVGID_561_);}
	.st324{clip-path:url(#SVGID_563_);}
	.st325{clip-path:url(#SVGID_565_);}
	.st326{clip-path:url(#SVGID_567_);}
	.st327{clip-path:url(#SVGID_569_);}
	.st328{clip-path:url(#SVGID_571_);}
	.st329{clip-path:url(#SVGID_573_);}
	.st330{clip-path:url(#SVGID_575_);}
	.st331{clip-path:url(#SVGID_577_);}
	.st332{clip-path:url(#SVGID_579_);}
	.st333{clip-path:url(#SVGID_581_);}
	.st334{clip-path:url(#SVGID_583_);}
	.st335{clip-path:url(#SVGID_585_);}
	.st336{clip-path:url(#SVGID_587_);}
	.st337{clip-path:url(#SVGID_589_);}
	.st338{clip-path:url(#SVGID_591_);}
	.st339{clip-path:url(#SVGID_593_);}
	.st340{clip-path:url(#SVGID_595_);}
	.st341{clip-path:url(#SVGID_597_);}
	.st342{clip-path:url(#SVGID_599_);}
	.st343{clip-path:url(#SVGID_601_);}
	.st344{clip-path:url(#SVGID_603_);}
	.st345{clip-path:url(#SVGID_605_);}
	.st346{clip-path:url(#SVGID_607_);}
	.st347{clip-path:url(#SVGID_609_);}
	.st348{clip-path:url(#SVGID_611_);}
	.st349{clip-path:url(#SVGID_613_);}
	.st350{clip-path:url(#SVGID_615_);}
	.st351{clip-path:url(#SVGID_617_);}
	.st352{clip-path:url(#SVGID_619_);}
	.st353{clip-path:url(#SVGID_621_);}
	.st354{clip-path:url(#SVGID_623_);}
	.st355{clip-path:url(#SVGID_625_);}
	.st356{clip-path:url(#SVGID_627_);}
	.st357{clip-path:url(#SVGID_629_);}
	.st358{clip-path:url(#SVGID_631_);}
	.st359{clip-path:url(#SVGID_633_);}
	.st360{clip-path:url(#SVGID_635_);}
	.st361{clip-path:url(#SVGID_637_);}
	.st362{clip-path:url(#SVGID_639_);}
	.st363{clip-path:url(#SVGID_641_);}
	.st364{clip-path:url(#SVGID_643_);}
	.st365{clip-path:url(#SVGID_645_);}
	.st366{clip-path:url(#SVGID_647_);}
	.st367{clip-path:url(#SVGID_649_);}
	.st368{clip-path:url(#SVGID_651_);}
	.st369{fill:#1F191B;}
	.st370{fill:#FFB400;}
	.st371{fill:#D32116;}
	.st372{fill:#003DA6;}
</style>
<g>
	<path d="M46,24.4c0,0-0.9-0.6-1.5-0.8c0,0-1.9-0.8-2.2-1.3c0,0-0.7-0.7-0.3-1.4c0,0,0.2-0.5,0.9-0.5c0,0,1,0.1,1,0.8v1.2h3.6v-1.7
		c0,0,0.3-2.7-4.1-2.9c0,0-0.3,0-0.8,0c0,0-2.7,0.2-3.6,1.6l0,0c0,0-0.4,0.4-0.4,1.9v1.1c0,0,0,1.2,0.6,2c0,0,0.3,0.5,1.2,1.1
		c0,0,1.8,0.9,2.8,1.5c0,0,1.1,0.6,0.9,1.6c0,0-0.1,1-1.1,0.9c0,0-0.9-0.1-0.9-1v-1.1h-3.7v1.7c0,0-0.1,3.1,4.7,3.1
		c0,0,4.6,0.1,4.8-3.2v-1.4C47.7,27.6,47.8,25.6,46,24.4L46,24.4z M103.8,28.3c0,0,0.1,1.1-1,1.1c0,0-1.1,0.1-1.1-1.1V18.2H98v10.1
		c0,0-0.4,3.8,5,3.8c0,0,4.7,0.1,4.7-3.6V18.3h-3.7L103.8,28.3L103.8,28.3z M115.7,23.5l3.7,8.2h4.1V18.3h-3.6l0.3,8.2h-0.2
		l-3.6-8.2h-4.2v13.5h3.5l-0.3-8.2H115.7z M132.1,24.3v1.9h0.9v2.1c0,1-0.8,1-0.8,1c-1.1,0-1-1-1-1V21c0-0.8,0.9-0.8,0.9-0.8
		c0.9,0,0.9,0.9,0.9,0.9v1.1h3.6c0.1-2.2-0.3-2.7-0.3-2.7c-0.8-1.9-4.1-1.9-4.1-1.9c-5.1,0-4.5,3.9-4.5,3.9v7.1
		c0.1,3.6,5.2,3.3,5.3,3.3c2.2-0.3,2.9-0.9,2.9-0.9c0.6-0.4,0.8-1.1,0.8-1.1c0.2-0.3,0.3-1.5,0.3-1.5v-4.1L132.1,24.3L132.1,24.3z
		 M59.3,18.3h-5.9L51,31.6h3.7l1.4-10.4h0.3l1.4,10.4h3.7L59.3,18.3z M68.8,21.7h0.3l1.8,10.1h3.6l1.9-10.1h0.3l0.1,10.1h3.5
		l-0.3-13.5h-5.8l-1.2,7.4h-0.3l-1.1-7.4h-5.9l-0.3,13.5h3.5V21.7z M92.1,24.4c0,0-0.9-0.6-1.5-0.8c0,0-1.9-0.8-2.2-1.3
		c0,0-0.7-0.7-0.3-1.4c0,0,0.2-0.5,0.9-0.5c0,0,1,0.1,1,0.8v1.2h3.6v-1.7c0,0,0.3-2.7-4.1-2.9c0,0-3.5-0.3-4.5,1.6
		c0,0-0.4,0.4-0.4,1.9v1.1c0,0,0,1.2,0.6,2c0,0,0.3,0.5,1.2,1.1c0,0,1.8,0.9,2.8,1.5c0,0,1.1,0.6,0.9,1.6c0,0-0.1,1-1.1,0.9
		c0,0-0.9-0.1-0.9-1v-1.1h-3.7v1.7c0,0-0.1,3.1,4.7,3.1c0,0,4.6,0.1,4.8-3.2v-1.4C93.7,27.6,93.9,25.6,92.1,24.4L92.1,24.4z"/>
</g>
</svg>
