<?xml version="1.0" encoding="utf-8"?>
<!-- Generator: Adobe Illustrator 25.2.1, SVG Export Plug-In . SVG Version: 6.00 Build 0)  -->
<svg version="1.1" id="Capa_1" xmlns="http://www.w3.org/2000/svg" xmlns:xlink="http://www.w3.org/1999/xlink" x="0px" y="0px"
	 viewBox="0 0 175 50" style="enable-background:new 0 0 175 50;" xml:space="preserve">
<style type="text/css">
	.st0{fill-rule:evenodd;clip-rule:evenodd;}
	.st1{fill:#000001;}
	.st2{clip-path:url(#SVGID_3_);fill:#000001;}
	.st3{fill-rule:evenodd;clip-rule:evenodd;fill:#000001;}
	.st4{stroke:#FFFFFF;stroke-width:0.25;stroke-miterlimit:10;}
	.st5{fill:#FFFFFF;}
	.st6{clip-path:url(#SVGID_5_);}
	.st7{clip-path:url(#SVGID_7_);}
	.st8{fill:#1A171B;}
	.st9{fill-rule:evenodd;clip-rule:evenodd;fill:#1A171B;}
	.st10{fill:#1A1413;}
	.st11{fill-rule:evenodd;clip-rule:evenodd;fill:#1A1413;}
	.st12{fill:none;}
	.st13{fill:#1C1C1B;}
	.st14{clip-path:url(#SVGID_9_);fill:#1C1C1B;}
	.st15{clip-path:url(#SVGID_11_);fill:#1C1C1B;}
	.st16{clip-path:url(#SVGID_13_);fill:#FFFFFF;}
	.st17{clip-path:url(#SVGID_13_);}
	.st18{fill:#C3E1F5;}
	.st19{fill:#00A0DF;}
	.st20{fill:#2D2A26;}
	.st21{fill:#FFCD00;}
	.st22{fill:#85754E;}
	.st23{clip-path:url(#SVGID_15_);}
	.st24{clip-path:url(#SVGID_17_);}
	.st25{clip-path:url(#SVGID_19_);fill:#2D2A26;}
	.st26{clip-path:url(#SVGID_21_);fill:#2D2A26;}
	.st27{clip-path:url(#SVGID_23_);fill:#2D2A26;}
	.st28{clip-path:url(#SVGID_25_);fill:#2D2A26;}
	.st29{clip-path:url(#SVGID_27_);fill:#2D2A26;}
	.st30{fill-rule:evenodd;clip-rule:evenodd;fill:#B01842;}
	.st31{fill:none;stroke:#000000;stroke-width:0.5;stroke-miterlimit:33.89;}
	.st32{fill:none;stroke:#259271;stroke-width:0.5;stroke-miterlimit:33.89;}
	.st33{fill:none;stroke:#FFFFFF;stroke-width:0.5;stroke-linecap:round;stroke-linejoin:round;stroke-miterlimit:33.89;}
	.st34{fill:none;stroke:#000000;stroke-width:0.5;stroke-linecap:round;stroke-linejoin:round;stroke-miterlimit:33.89;}
	.st35{fill:none;stroke:#000000;stroke-width:0.2;stroke-miterlimit:33.89;}
	.st36{fill:#9C080D;}
	.st37{opacity:0.4;fill:#221E1F;}
	.st38{fill:#F9F9FA;}
	.st39{opacity:0.2;}
	.st40{opacity:0.15;}
	.st41{fill:#1C1C1B;stroke:#1C1C1B;stroke-width:0.1;stroke-miterlimit:10;}
	.st42{fill:#221E1F;}
	.st43{fill:#33530D;}
	.st44{fill:#221E1F;stroke:#FFFFFF;stroke-miterlimit:10;}
	.st45{fill-rule:evenodd;clip-rule:evenodd;fill:#FFFFFF;stroke:#221E1F;stroke-miterlimit:10;}
	.st46{fill-rule:evenodd;clip-rule:evenodd;fill:#FFFFFF;}
	.st47{fill:#221E1F;stroke:#221E1F;stroke-miterlimit:10;}
	.st48{fill:#F6F6F6;}
	.st49{clip-path:url(#SVGID_31_);}
	.st50{fill:#FFFFFF;stroke:#000000;stroke-miterlimit:10;}
	.st51{fill:#FFFFFF;stroke:#000000;stroke-width:0.5;stroke-miterlimit:10;}
	.st52{stroke:#000000;stroke-miterlimit:10;}
	.st53{fill:none;stroke:#000000;stroke-miterlimit:10;}
	.st54{fill:none;stroke:#000000;stroke-width:0.5;stroke-miterlimit:10;}
</style>
<g>
	<path d="M46.4,14.4c0.8,0,1.5,0,2.4,0c0.1,0,0.2,0.2,0.2,0.3c0.2,0.8,0.4,1.6,0.6,2.4c0.4,1.3,0.7,2.7,1.1,4c0.4,1.3,0.7,2.7,1,4
		c0,0.1,0.1,0.2,0.2,0.3c0.1-0.4,0.2-0.9,0.3-1.3c0.4-1.5,0.8-3.1,1.2-4.6c0.4-1.5,0.8-3.2,1.2-4.7c0.1-0.2,0.2-0.3,0.4-0.3
		c0.6,0,1.2,0,1.9,0c0.2,0,0.3,0.1,0.3,0.2c0.7,2.5,1.3,5,2.1,7.5c0.3,1,0.5,2.1,0.8,3.1c0,0.1,0.1,0.1,0.1,0.3
		c0.2-0.5,0.3-1,0.4-1.4c0.4-1.4,0.8-3,1.1-4.4c0.4-1.6,0.9-3.3,1.3-4.9c0.1-0.2,0.2-0.3,0.4-0.3c0.7,0,1.3,0,2.2,0
		c-0.1,0.4-0.2,0.6-0.3,1c-0.6,2.2-1.2,4.3-1.8,6.5c-0.5,1.8-1,3.6-1.4,5.4c-0.2,0.8-0.4,1.5-0.6,2.4c0,0.2-0.1,0.3-0.3,0.3
		c-0.6,0-1.2,0-2,0c-0.2,0-0.3-0.1-0.3-0.2c-0.4-1.5-0.8-3-1.1-4.5c-0.4-1.6-0.9-3.2-1.3-4.8c-0.1-0.5-0.2-0.9-0.4-1.4h-0.1
		c-0.1,0.3-0.2,0.7-0.3,1c-0.4,1.6-0.9,3.3-1.3,4.9c-0.4,1.5-0.8,3-1.2,4.5c-0.1,0.5-0.1,0.5-0.7,0.5c-0.5,0-1.1,0-1.6,0
		c-0.2,0-0.3-0.1-0.3-0.2c-0.4-1.4-0.8-2.9-1.2-4.3c-0.7-2.7-1.4-5.3-2.2-7.9c-0.2-0.8-0.4-1.6-0.7-2.5
		C46.5,14.7,46.5,14.6,46.4,14.4C46.4,14.5,46.4,14.5,46.4,14.4z"/>
	<path d="M128.6,29.7c-0.8,0-1.5,0-2.4,0c0-5.2,0-10.2,0-15.3c0.8-0.1,1.5-0.1,2.4-0.2C128.6,19.4,128.6,24.6,128.6,29.7z"/>
	<path d="M128.6,34.7c-0.4,0.1-0.6-0.1-0.7-0.4c-0.2-0.4-0.5-0.7-0.8-1.1c0,0.5,0,1,0,1.5c-0.2,0-0.4,0-0.6,0c0-0.8,0-1.6,0-2.6
		c0.3-0.1,0.5,0,0.7,0.3c0.2,0.4,0.5,0.8,0.8,1.2c0-0.5,0-1,0-1.5c0.2,0,0.4,0,0.5,0C128.6,32.9,128.6,33.9,128.6,34.7z"/>
	<path d="M69.4,29.7c-0.8,0-1.6,0-2.4,0c0-5.2,0-10.2,0-15.3c0.8-0.1,1.5-0.1,2.4-0.2c0,1.8,0,3.4,0,5.2c0.5-0.1,1-0.3,1.5-0.4
		c0.8-0.2,1.8-0.3,2.7-0.1c1.1,0.2,1.8,1,2.1,2.1c0.1,0.6,0.2,1.3,0.2,2c0,2.2,0,4.3,0,6.5c0,0.1,0,0.2,0,0.3c-0.8,0-1.5,0-2.4,0
		c0-0.1,0-0.3,0-0.4c0-2.1,0-4.1,0-6.2c0-0.4-0.1-0.9-0.2-1.3c-0.1-0.5-0.6-0.8-1.1-0.9c-0.8-0.2-1.6,0-2.5,0.2
		c-0.1,0-0.2,0.2-0.2,0.3c0,0.7,0,1.3,0,2.1c0,2,0,3.8,0,5.8C69.4,29.4,69.4,29.6,69.4,29.7z"/>
	<path d="M124.7,24.5c-0.1,1-0.2,2-0.5,2.9c-0.6,1.6-1.9,2.5-3.5,2.6c-0.8,0.1-1.8,0.1-2.6-0.1c-1.3-0.4-2.4-1.2-2.8-2.6
		c-0.7-2.2-0.6-4.3,0.3-6.4c0.4-0.9,1.3-1.5,2.3-1.8c1.2-0.3,2.4-0.3,3.6,0c1.4,0.4,2.4,1.4,2.7,2.9
		C124.5,22.7,124.5,23.7,124.7,24.5z M122.1,24.4c-0.1-0.8-0.1-1.6-0.4-2.5c-0.2-0.6-0.6-1-1.3-1.2c-0.5-0.1-1-0.1-1.5,0.1
		c-0.5,0.2-0.9,0.5-1.1,1.1c-0.6,1.6-0.6,3.3,0,4.9c0.2,0.5,0.5,0.8,1,1c1.3,0.5,2.8,0.1,3.1-1.6C122,25.7,122.1,25,122.1,24.4z"/>
	<path d="M108.8,30c-0.8,0-1.6-0.2-2.5-0.5c-0.9-0.4-1.6-1.2-2-2.2c-0.6-2-0.6-3.9,0-5.8c0.5-1.5,1.6-2.4,3.2-2.7
		c1-0.2,2.1-0.2,3,0.1c1.5,0.4,2.4,1.5,2.8,3c0.3,1.5,0.3,3.1,0,4.6c-0.4,1.6-1.3,2.8-3.1,3.2C109.9,29.9,109.3,30,108.8,30z
		 M111.3,24.4c-0.1-0.6-0.1-1.2-0.2-1.8c-0.1-0.6-0.4-1.2-1-1.6c-1.2-0.7-2.8-0.2-3.2,1.1c-0.5,1.2-0.4,2.6-0.2,3.8
		c0.1,0.5,0.2,0.9,0.5,1.3c0.5,0.8,1.9,1,2.8,0.5c0.3-0.2,0.5-0.4,0.7-0.6C111.2,26.3,111.2,25.4,111.3,24.4z"/>
	<path d="M102.5,21.9c0.1,0.4,0.1,0.6,0.1,0.9c0.1,1.3,0.2,2.7-0.2,4c-0.7,2.3-2.4,3.2-4.6,3.1c-0.5,0-1.1-0.1-1.8-0.2
		c0,1.6,0,3.3,0,4.9c-0.8,0.1-1.6,0.2-2.5,0.3c0-0.4,0-0.7,0-1c0-0.9,0-1.9,0-2.7c0-0.1,0.1-0.3,0.2-0.4c0.9-0.8,1.9-1.5,2.8-2.5
		c0.4-0.4,0.8-0.5,1.3-0.5c0.4,0,0.8-0.1,1.2-0.3c0.7-0.3,0.9-1,1-1.8c0.1-0.9,0.5-1.6,1.1-2.4c0.4-0.4,0.6-0.8,1-1.2
		C102.3,22.1,102.3,22,102.5,21.9z"/>
	<path d="M93.6,28.7c0-3.3,0-6.5,0-9.7c0.5,0,1.1,0,1.6,0c0.1,0,0.2,0.1,0.2,0.2c0.1,0.2,0.1,0.4,0.1,0.5c0.7-0.2,1.3-0.5,2.1-0.7
		c1-0.3,2.2-0.3,3.2,0.3c0.3,0.2,0.5,0.4,0.8,0.7c0,0,0.1,0.2,0,0.2c-0.5,0.7-1,1.3-1.5,2.1c-0.4-0.8-1.1-1.1-1.9-1.1
		c-0.5,0-1,0-1.5,0.1C95.9,21.4,96,21.4,96,22c0,1.4,0,2.8,0,4.2c0,0.2-0.1,0.4-0.2,0.5c-0.6,0.6-1.2,1.1-1.9,1.8
		C93.9,28.5,93.8,28.5,93.6,28.7z"/>
	<path d="M80.7,16.1c0,0.2,0,0.3,0,0.5c-0.1,0.7-0.6,1.1-1.4,1.1s-1.2-0.4-1.3-1.1c-0.1-0.5-0.1-1,0.2-1.4c0.1-0.2,0.4-0.4,0.6-0.5
		c0.2-0.1,0.4-0.1,0.6-0.1C80.2,14.6,80.7,15,80.7,16.1z"/>
	<path d="M105.5,33.4c0,1-0.6,1.5-1.6,1.2c-0.3-0.1-0.5-0.2-0.6-0.5c-0.2-0.6-0.2-1.1,0.1-1.8c0-0.1,0.1-0.1,0.2-0.2
		c0.4-0.3,0.9-0.3,1.3-0.1c0.4,0.2,0.6,0.6,0.6,1C105.5,33.3,105.5,33.3,105.5,33.4z M103.7,33.3c0,0.2,0.1,0.4,0.1,0.6
		c0.1,0.3,0.3,0.4,0.6,0.3c0.3,0,0.4-0.2,0.4-0.4c0-0.3,0-0.6,0-0.9c0-0.3-0.2-0.4-0.4-0.5c-0.3,0-0.5,0.1-0.6,0.3
		C103.8,32.9,103.7,33.1,103.7,33.3z"/>
	<path d="M125.7,33.4c0,1-0.5,1.4-1.5,1.2c-0.3-0.1-0.6-0.2-0.7-0.6c-0.2-0.5-0.2-0.9,0-1.4c0.2-0.6,0.8-0.6,1.3-0.6
		c0.5,0.1,0.8,0.4,0.8,1C125.7,33.1,125.7,33.3,125.7,33.4z M125.1,33.4c0-0.2,0-0.3-0.1-0.5c0-0.3-0.2-0.4-0.5-0.4
		c-0.3,0-0.5,0.1-0.5,0.3c-0.1,0.4-0.1,0.7,0,1.1c0,0.2,0.3,0.4,0.6,0.4c0.3,0,0.4-0.2,0.5-0.4C125.1,33.8,125.1,33.5,125.1,33.4z"
		/>
	<path d="M107.6,33.7c0.2,0.3,0.4,0.7,0.6,1c-0.5,0.1-0.6,0.1-0.8-0.3c-0.2-0.4-0.3-0.5-0.6-0.5c0,0.3,0,0.6,0,0.9
		c-0.2,0-0.4,0-0.5,0c0-0.8,0-1.8,0-2.6c0.4,0,0.8,0,1.1,0s0.6,0.2,0.6,0.5C108.2,33,108,33.3,107.6,33.7
		C107.7,33.5,107.6,33.7,107.6,33.7z M106.9,33.4c0.2-0.1,0.5-0.2,0.6-0.3c0.1-0.1,0.1-0.3,0-0.4s-0.4-0.1-0.6-0.2
		C106.9,32.8,106.9,33,106.9,33.4z"/>
	<path d="M112.4,32.1c0.7,0,1,0.3,1.1,0.9c0,0.4-0.1,0.7-0.1,1.1c0,0.1,0,0.1-0.1,0.1c-0.4,0.4-0.8,0.4-1.3,0.3
		c-0.4-0.1-0.7-0.4-0.8-0.8c0-0.2,0-0.4,0-0.6C111.3,32.4,111.6,32.1,112.4,32.1z M113,33.4c0-0.2,0-0.3-0.1-0.4
		c-0.1-0.3-0.2-0.5-0.5-0.5c-0.3,0-0.5,0.2-0.5,0.4c0,0.3,0,0.7,0,1c0,0.3,0.3,0.3,0.5,0.3c0.3,0,0.4-0.2,0.5-0.4
		C112.9,33.8,113,33.5,113,33.4z"/>
	<path d="M116.3,34.7c-0.3,0-0.5,0-0.7,0c-0.2-0.4-0.1-0.9-0.8-0.9c0,0.3,0,0.6,0,0.9c-0.2,0-0.3,0-0.5,0c0-0.8,0-1.6,0-2.6
		c0.3,0,0.7,0,1,0c0.5,0,0.7,0.2,0.7,0.6c0.1,0.4,0,0.6-0.4,0.9C115.9,34,116.1,34.3,116.3,34.7z M114.9,32.5c0,0.3,0,0.5,0,0.7
		c0.5,0,0.7-0.1,0.7-0.4C115.6,32.6,115.4,32.5,114.9,32.5z"/>
	<path d="M119.2,34.7c-0.2,0-0.3,0-0.4,0c-0.2,0-0.3,0-0.3-0.2c0-0.2-0.1-0.4-0.4-0.4c-0.3,0-0.6-0.1-0.7,0.3
		c-0.1,0.4-0.4,0.2-0.7,0.3c0.2-0.5,0.3-0.9,0.4-1.3c0.1-0.4,0.3-0.7,0.4-1.1c0-0.1,0.2-0.2,0.3-0.2c0.1,0,0.3,0,0.4,0.1
		C118.6,33,118.9,33.9,119.2,34.7z M118,32.7C118,32.7,117.9,32.7,118,32.7c-0.1,0.3-0.2,0.6-0.3,0.9c0.2,0,0.4,0,0.6,0
		C118.2,33.3,118.1,33,118,32.7z"/>
	<path d="M109.4,34.7c-0.2,0-0.3,0-0.5,0c0-0.8,0-1.8,0-2.6c0.4,0,0.8,0,1.2,0.1c0.4,0.1,0.6,0.3,0.5,0.8c0,0.4-0.2,0.7-0.6,0.8
		c-0.2,0-0.4,0-0.7,0.1c0,0.1,0,0.3,0,0.4C109.4,34.4,109.4,34.5,109.4,34.7z M109.4,32.5c0,0.4,0,0.6,0,1c0.2-0.1,0.5-0.1,0.6-0.3
		c0.1-0.1,0.1-0.4,0-0.4C110,32.6,109.6,32.6,109.4,32.5z"/>
	<path d="M102.6,32.5c-0.5,0-1.1-0.2-1.3,0.3c-0.1,0.3-0.1,0.8,0,1.1c0.2,0.4,0.8,0.2,1.2,0.2c0.1,0.4,0.1,0.5-0.3,0.5
		c-0.2,0-0.3,0-0.5,0c-0.6,0-1-0.3-1.1-0.8c-0.2-0.7,0-1.3,0.6-1.6c0.3-0.1,0.8-0.1,1.1-0.1C102.4,32.1,102.5,32.4,102.6,32.5z"/>
	<path d="M120.2,32.5c-0.3,0-0.5,0-0.7,0c0-0.1,0-0.3,0-0.4c0.6,0,1.3,0,2,0c0,0.1,0,0.2,0,0.4c-0.2,0-0.4,0-0.7,0
		c0,0.7,0,1.4,0,2.2c-0.2,0-0.3,0-0.5,0C120.2,34,120.2,33.2,120.2,32.5z"/>
	<path d="M122.6,34.7c-0.2,0-0.3,0-0.5,0c0-0.8,0-1.8,0-2.6c0.2,0,0.3,0,0.5,0C122.6,32.9,122.6,33.8,122.6,34.7z"/>
	<path class="st4" d="M105.4,12c-2.3-2.7-10.8,1-19,8.2S73.6,35.3,76,38c2.3,2.7,10.8-1,19-8.2S107.7,14.7,105.4,12z M94.1,28.5
		c-7.2,6.4-14.5,9.8-16.4,7.7s2.5-9,9.7-15.3s14.5-9.8,16.4-7.7C105.6,15.3,101.3,22.1,94.1,28.5z"/>
	<path class="st4" d="M89.1,14.4c0.4,0,0.8-0.1,1.2-0.1s0.7-0.1,1.2-0.1c0,5.2,0,10.3,0,15.6c-0.8,0-1.5,0-2.4,0
		C89.1,24.7,89.1,19.5,89.1,14.4z"/>
	<path class="st4" d="M84.9,29.7c-0.8,0-1.6,0-2.4,0c0-3.6,0-7.2,0-10.8c0.5,0,1,0,1.5,0c0.1,0,0.1,0.1,0.2,0.2
		c0.1,0.2,0.2,0.4,0.3,0.7c1-0.8,2.3-1.1,3.6-1.1c0,0.8,0,1.5,0,2.4c-0.2,0-0.4,0-0.6-0.1c-0.8-0.1-1.5,0-2.3,0.3
		c-0.4,0.2-0.4,0.3-0.4,0.5c0,2.5,0,5,0,7.5C84.9,29.4,84.9,29.6,84.9,29.7z"/>
	<path class="st4" d="M80.4,29.8c-0.7,0-1.4,0-2.2,0c-0.1,0-0.2-0.1-0.2-0.2s0-0.1,0-0.2c0-3.3,0-6.6,0-10c0-0.1,0-0.3,0-0.4
		c0.8,0,1.5,0,2.4,0C80.4,22.5,80.4,26.1,80.4,29.8z"/>
</g>
</svg>
